<mxfile host="app.diagrams.net" agent="Mozilla/5.0 (Windows NT 10.0; Win64; x64) AppleWebKit/537.36 (KHTML, like Gecko) Chrome/135.0.0.0 Safari/537.36" version="26.2.12">
  <diagram id="d1ab7348-05c3-a1e3-ca4d-12c340fd6b49" name="Page-1">
    <mxGraphModel dx="927" dy="531" grid="1" gridSize="10" guides="1" tooltips="1" connect="1" arrows="1" fold="1" page="1" pageScale="1" pageWidth="1169" pageHeight="827" background="none" math="0" shadow="0">
      <root>
        <mxCell id="0" />
        <mxCell id="1" parent="0" />
        <mxCell id="3ZfG_3-aHI2Txs_DAWEP-415" value="&lt;b&gt;Google &lt;/b&gt;Cloud Platform" style="fillColor=#F6F6F6;strokeColor=none;shadow=0;gradientColor=none;fontSize=14;align=left;spacing=10;fontColor=#717171;9E9E9E;verticalAlign=top;spacingTop=-4;fontStyle=0;spacingLeft=40;html=1;container=0;" parent="1" vertex="1">
          <mxGeometry x="190" y="100" width="400" height="320" as="geometry" />
        </mxCell>
        <mxCell id="3ZfG_3-aHI2Txs_DAWEP-456" value="5" style="shape=ellipse;fillColor=#ffffff;strokeColor=#BDBDBD;strokeWidth=2;shadow=0;gradientColor=none;fontColor=#757575;align=center;html=1;fontStyle=1;spacingTop=-1;" parent="1" vertex="1">
          <mxGeometry x="416" y="323.5" width="20" height="20" as="geometry" />
        </mxCell>
        <mxCell id="3ZfG_3-aHI2Txs_DAWEP-458" value="" style="fillColor=#ffffff;strokeColor=#BDBDBD;strokeWidth=1;shadow=0;gradientColor=none;fontSize=10;fontColor=#9E9E9E;align=center;html=1;" parent="1" vertex="1">
          <mxGeometry x="222.5" y="620" width="600" height="70" as="geometry" />
        </mxCell>
        <mxCell id="3ZfG_3-aHI2Txs_DAWEP-459" value="1 Commit code" style="strokeColor=none;fillColor=none;fontColor=#757575;align=left;html=1;fontStyle=0;spacingLeft=5;fontSize=11;verticalAlign=top;whiteSpace=wrap;spacingRight=5;" parent="3ZfG_3-aHI2Txs_DAWEP-458" vertex="1">
          <mxGeometry width="200" height="30" relative="1" as="geometry" />
        </mxCell>
        <mxCell id="3ZfG_3-aHI2Txs_DAWEP-460" value="2 Detect code change" style="strokeColor=none;fillColor=none;fontColor=#757575;align=left;html=1;fontStyle=0;spacingLeft=5;fontSize=11;verticalAlign=top;whiteSpace=wrap;spacingRight=5;" parent="3ZfG_3-aHI2Txs_DAWEP-458" vertex="1">
          <mxGeometry width="200" height="30" relative="1" as="geometry">
            <mxPoint y="30" as="offset" />
          </mxGeometry>
        </mxCell>
        <mxCell id="3ZfG_3-aHI2Txs_DAWEP-461" value="3 Build immutable image" style="strokeColor=none;fillColor=none;fontColor=#757575;align=left;html=1;fontStyle=0;spacingLeft=5;fontSize=11;verticalAlign=top;whiteSpace=wrap;spacingRight=5;" parent="3ZfG_3-aHI2Txs_DAWEP-458" vertex="1">
          <mxGeometry width="200" height="30" relative="1" as="geometry">
            <mxPoint x="200" as="offset" />
          </mxGeometry>
        </mxCell>
        <mxCell id="3ZfG_3-aHI2Txs_DAWEP-462" value="4 Launch test instance from image" style="strokeColor=none;fillColor=none;fontColor=#757575;align=left;html=1;fontStyle=0;spacingLeft=5;fontSize=11;verticalAlign=top;whiteSpace=wrap;spacingRight=5;" parent="3ZfG_3-aHI2Txs_DAWEP-458" vertex="1">
          <mxGeometry width="200" height="30" relative="1" as="geometry">
            <mxPoint x="200" y="30" as="offset" />
          </mxGeometry>
        </mxCell>
        <mxCell id="3ZfG_3-aHI2Txs_DAWEP-463" value="5 Run tests" style="strokeColor=none;fillColor=none;fontColor=#757575;align=left;html=1;fontStyle=0;spacingLeft=5;fontSize=11;verticalAlign=top;whiteSpace=wrap;spacingRight=5;" parent="3ZfG_3-aHI2Txs_DAWEP-458" vertex="1">
          <mxGeometry width="200" height="30" relative="1" as="geometry">
            <mxPoint x="400" as="offset" />
          </mxGeometry>
        </mxCell>
        <mxCell id="3ZfG_3-aHI2Txs_DAWEP-464" value="6 Perform rolling update of image to autoscaler" style="strokeColor=none;fillColor=none;fontColor=#757575;align=left;html=1;fontStyle=0;spacingLeft=5;fontSize=11;verticalAlign=top;whiteSpace=wrap;spacingRight=5;" parent="3ZfG_3-aHI2Txs_DAWEP-458" vertex="1">
          <mxGeometry width="200" height="30" relative="1" as="geometry">
            <mxPoint x="400" y="30" as="offset" />
          </mxGeometry>
        </mxCell>
        <mxCell id="3ZfG_3-aHI2Txs_DAWEP-416" value="" style="shape=mxgraph.gcp2.google_cloud_platform;fillColor=#F6F6F6;strokeColor=none;shadow=0;gradientColor=none;" parent="1" vertex="1">
          <mxGeometry x="210" y="110" width="23" height="20" as="geometry">
            <mxPoint x="20" y="10" as="offset" />
          </mxGeometry>
        </mxCell>
        <mxCell id="3ZfG_3-aHI2Txs_DAWEP-417" value="Users" style="rounded=1;absoluteArcSize=1;arcSize=2;html=1;strokeColor=none;gradientColor=none;shadow=0;dashed=0;strokeColor=none;fontSize=12;fontColor=#9E9E9E;align=left;verticalAlign=top;spacing=10;spacingTop=-4;fillColor=#F1F8E9;" parent="1" vertex="1">
          <mxGeometry x="932.5" y="290" width="90" height="190" as="geometry" />
        </mxCell>
        <mxCell id="3ZfG_3-aHI2Txs_DAWEP-446" style="edgeStyle=orthogonalEdgeStyle;rounded=0;html=1;labelBackgroundColor=none;startFill=1;startSize=4;endArrow=blockThin;endFill=1;endSize=4;jettySize=auto;orthogonalLoop=1;strokeColor=#9E9E9E;strokeWidth=2;fontSize=12;fontColor=#000000;align=center;dashed=0;" parent="1" source="3ZfG_3-aHI2Txs_DAWEP-447" edge="1">
          <mxGeometry relative="1" as="geometry">
            <Array as="points">
              <mxPoint x="910" y="355" />
              <mxPoint x="910" y="410" />
            </Array>
            <mxPoint x="882.5" y="410" as="targetPoint" />
          </mxGeometry>
        </mxCell>
        <mxCell id="3ZfG_3-aHI2Txs_DAWEP-447" value="" style="strokeColor=#dddddd;fillColor=#ffffff;shadow=1;strokeWidth=1;rounded=1;absoluteArcSize=1;arcSize=2;labelPosition=center;verticalLabelPosition=middle;align=center;verticalAlign=bottom;spacingLeft=0;fontColor=#999999;fontSize=12;whiteSpace=wrap;spacingBottom=2;html=1;" parent="1" vertex="1">
          <mxGeometry x="942.5" y="320" width="70" height="69" as="geometry" />
        </mxCell>
        <mxCell id="3ZfG_3-aHI2Txs_DAWEP-448" value="" style="dashed=0;connectable=0;html=1;fillColor=#757575;strokeColor=none;shape=mxgraph.gcp2.laptop;part=1;" parent="3ZfG_3-aHI2Txs_DAWEP-447" vertex="1">
          <mxGeometry x="0.5" width="50" height="33" relative="1" as="geometry">
            <mxPoint x="-25" y="18.5" as="offset" />
          </mxGeometry>
        </mxCell>
        <mxCell id="3ZfG_3-aHI2Txs_DAWEP-449" style="edgeStyle=orthogonalEdgeStyle;rounded=0;html=1;labelBackgroundColor=none;startFill=1;startSize=4;endArrow=blockThin;endFill=1;endSize=4;jettySize=auto;orthogonalLoop=1;strokeColor=#9E9E9E;strokeWidth=2;fontSize=12;fontColor=#000000;align=center;dashed=0;" parent="1" source="3ZfG_3-aHI2Txs_DAWEP-450" edge="1">
          <mxGeometry relative="1" as="geometry">
            <Array as="points">
              <mxPoint x="910" y="437" />
              <mxPoint x="910" y="410" />
            </Array>
            <mxPoint x="882.5" y="410" as="targetPoint" />
          </mxGeometry>
        </mxCell>
        <mxCell id="3ZfG_3-aHI2Txs_DAWEP-450" value="" style="strokeColor=#dddddd;fillColor=#ffffff;shadow=1;strokeWidth=1;rounded=1;absoluteArcSize=1;arcSize=2;labelPosition=center;verticalLabelPosition=middle;align=center;verticalAlign=bottom;spacingLeft=0;fontColor=#999999;fontSize=12;whiteSpace=wrap;spacingBottom=2;html=1;" parent="1" vertex="1">
          <mxGeometry x="942.5" y="405" width="70" height="65" as="geometry" />
        </mxCell>
        <mxCell id="3ZfG_3-aHI2Txs_DAWEP-451" value="" style="dashed=0;connectable=0;html=1;fillColor=#757575;strokeColor=none;shape=mxgraph.gcp2.mobile_devices;part=1;" parent="3ZfG_3-aHI2Txs_DAWEP-450" vertex="1">
          <mxGeometry x="0.5" width="50" height="36.5" relative="1" as="geometry">
            <mxPoint x="-25" y="16.75" as="offset" />
          </mxGeometry>
        </mxCell>
        <mxCell id="3ZfG_3-aHI2Txs_DAWEP-454" value="3" style="shape=ellipse;fillColor=#ffffff;strokeColor=#BDBDBD;strokeWidth=2;shadow=0;gradientColor=none;fontColor=#757575;align=center;html=1;fontStyle=1;spacingTop=-1;" parent="1" vertex="1">
          <mxGeometry x="298" y="374.5" width="20" height="20" as="geometry" />
        </mxCell>
        <mxCell id="3ZfG_3-aHI2Txs_DAWEP-418" value="Central Host Project" style="rounded=1;absoluteArcSize=1;arcSize=2;html=1;strokeColor=none;gradientColor=none;shadow=0;dashed=0;strokeColor=none;fontSize=12;fontColor=#9E9E9E;align=left;verticalAlign=top;spacing=10;spacingTop=-4;fillColor=#E1F5FE;" parent="1" vertex="1">
          <mxGeometry x="210" y="150" width="360" height="120" as="geometry" />
        </mxCell>
        <mxCell id="uihOCpdedheHZuDgh2_N-4" value="Cloud&#xa;Scheduler" style="sketch=0;html=1;verticalAlign=top;labelPosition=center;verticalLabelPosition=bottom;align=center;spacingTop=-6;fontSize=11;fontStyle=1;fontColor=#999999;shape=image;aspect=fixed;imageAspect=0;image=data:image/svg+xml,PHN2ZyB4bWxucz0iaHR0cDovL3d3dy53My5vcmcvMjAwMC9zdmciIHhtbG5zOnY9Imh0dHBzOi8vdmVjdGEuaW8vbmFubyIgd2lkdGg9IjM2MC4zMDM3NjY4NjA4MzYzIiBoZWlnaHQ9IjM3OC4wNTExNTgwNzc0MDg4IiB2aWV3Qm94PSItMC4wMDAxNjI0MjExNDM2MTM3NTU3IC0wLjAwMDEwMDAwNTk0OTIwNzExNTkyIDk1LjMzMDI2MTIzMDQ2ODc1IDEwMC4wMjYxMDAxNTg2OTE0Ij4mI3hhOzxzdHlsZSB0eXBlPSJ0ZXh0L2NzcyI+JiN4YTsJLnN0MHtmaWxsOiM0Mjg1ZjQ7fSYjeGE7CS5zdDF7ZmlsbDojYWVjYmZhO30mI3hhOwkuc3Qye2ZpbGw6IzY2OWRmNjt9JiN4YTs8L3N0eWxlPiYjeGE7CTxwYXRoIGNsYXNzPSJzdDAiIGQ9Ik03OS45NzEgNzcuNzE1bC03LjM1OSA3LjQ4OCA4LjYzOSA4LjQ5IDcuMzU5LTcuNDg4em0tNjUuMDk2LjA2MWwtOC42NDEgOC40OTIgNy4zNjEgNy40ODggOC42MzktOC40OXoiLz4mI3hhOwk8cGF0aCBjbGFzcz0ic3QxIiBkPSJNNzkuNTUzLjIyMWE1LjI1IDUuMjUgMCAwIDAtMy42NiA4Ljk4NEw4Ni4zODkgMTkuNThhNS4yNSA1LjI1IDAgMCAwIDguOTQxLTMuNzY1IDUuMjUgNS4yNSAwIDAgMC0xLjU2LTMuNzA0TDgzLjI3NSAxLjczOEE1LjI1IDUuMjUgMCAwIDAgNzkuNTUzLjIyMXpNMTUuOTE2IDBhNS4yNSA1LjI1IDAgMCAwLTMuNzIzIDEuNTE2TDEuNjk5IDExLjg5MWE1LjI1IDUuMjUgMCAwIDAtLjA0MyA3LjQyNCA1LjI1IDUuMjUgMCAwIDAgNy40MjQuMDQzTDE5LjU3NiA4Ljk4MkE1LjI1IDUuMjUgMCAwIDAgMTUuOTE2IDB6Ii8+JiN4YTsJPHBhdGggY2xhc3M9InN0MCIgZD0iTTQ4LjEzOCAyNi4yNGMxMy4zNDcgMCAyNS40MzIgMTEuMTM2IDI1LjMxIDI2LjQ4MSAwIDE1LjExLTEyLjI2NyAyNS42NzMtMjUuMTg5IDI1LjY3My0xMS4xNDkgMC0xOC4zMTctNS4xNzEtMjEuOTYtMTAuNzM4bDIxLjgzOS0xNS4wOTd6Ii8+JiN4YTsJPHBhdGggY2xhc3M9InN0MiIgZD0iTTgxLjI1IDkzLjY5M2w0LjY2NCA0LjU4NmE1LjI1IDUuMjUgMCAxIDAgNy4zNjEtNy40OWwtNC42NjYtNC41ODR6TTYuMjM0IDg2LjI2OEwxLjU3IDkwLjg1MWE1LjI1IDUuMjUgMCAwIDAtLjA2NSA3LjQyNCA1LjI1IDUuMjUgMCAwIDAgNy40MjQuMDY0bDQuNjY2LTQuNTg0ek00Ny4zNzEgNS41NzhDMjEuMzQ5IDUuNTc4LjE0NiAyNi43NzkuMTQ2IDUyLjgwMXMyMS4yMDMgNDcuMjI1IDQ3LjIyNSA0Ny4yMjUgNDcuMjI1LTIxLjIwMyA0Ny4yMjUtNDcuMjI1UzczLjM5MyA1LjU3OCA0Ny4zNzEgNS41Nzh6bTAgMTBhMzcuMTUgMzcuMTUgMCAwIDEgMzcuMjI1IDM3LjIyM2MwIDIwLjYxNy0xNi42MDcgMzcuMjI1LTM3LjIyNSAzNy4yMjVTMTAuMTQ2IDczLjQxOCAxMC4xNDYgNTIuODAxYTM3LjE1IDM3LjE1IDAgMCAxIDM3LjIyNS0zNy4yMjN6Ii8+JiN4YTs8L3N2Zz4=;" vertex="1" parent="1">
          <mxGeometry x="240" y="178" width="33" height="34.65" as="geometry" />
        </mxCell>
        <mxCell id="uihOCpdedheHZuDgh2_N-7" value="Pub/Sub" style="sketch=0;html=1;verticalAlign=top;labelPosition=center;verticalLabelPosition=bottom;align=center;spacingTop=-6;fontSize=11;fontStyle=1;fontColor=#999999;shape=image;aspect=fixed;imageAspect=0;image=data:image/svg+xml,PHN2ZyB4bWxucz0iaHR0cDovL3d3dy53My5vcmcvMjAwMC9zdmciIHhtbG5zOnY9Imh0dHBzOi8vdmVjdGEuaW8vbmFubyIgd2lkdGg9IjE4LjMxOTk5OTY5NDgyNDIyIiBoZWlnaHQ9IjIwLjAwMDAwMTkwNzM0ODYzMyIgdmlld0JveD0iMCAwIDE4LjMxOTk5OTY5NDgyNDIyIDIwLjAwMDAwMTkwNzM0ODYzMyI+JiN4YTsJPHN0eWxlIHR5cGU9InRleHQvY3NzIj4mI3hhOwkuc3Qwe2ZpbGw6IzY2OWRmNjt9JiN4YTsJLnN0MXtmaWxsOiM0Mjg1ZjQ7fSYjeGE7CS5zdDJ7ZmlsbDojYWVjYmZhO30mI3hhOwk8L3N0eWxlPiYjeGE7CTxkZWZzPiYjeGE7CQk8ZmlsdGVyIGlkPSJBIiB4PSI0LjY0IiB5PSI0LjE5IiB3aWR0aD0iMTQuNzMiIGhlaWdodD0iMTIuNzYiIGZpbHRlclVuaXRzPSJ1c2VyU3BhY2VPblVzZSIgY29sb3ItaW50ZXJwb2xhdGlvbi1maWx0ZXJzPSJzUkdCIj4mI3hhOwkJCTxmZUZsb29kIGZsb29kLWNvbG9yPSIjZmZmIi8+JiN4YTsJCQk8ZmVCbGVuZCBpbj0iU291cmNlR3JhcGhpYyIvPiYjeGE7CQk8L2ZpbHRlcj4mI3hhOwkJPG1hc2sgaWQ9IkIiIHg9IjQuNjQiIHk9IjQuMTkiIHdpZHRoPSIxNC43MyIgaGVpZ2h0PSIxMi43NiIgbWFza1VuaXRzPSJ1c2VyU3BhY2VPblVzZSI+JiN4YTsJCQk8Y2lyY2xlIGN4PSIxMiIgY3k9IjEyLjIzIiByPSIzLjU4IiBmaWx0ZXI9InVybCgjQSkiLz4mI3hhOwkJPC9tYXNrPiYjeGE7CTwvZGVmcz4mI3hhOwk8ZyBjbGFzcz0ic3QwIj4mI3hhOwkJPGNpcmNsZSBjeD0iMTYuMTMiIGN5PSI2LjIxIiByPSIxLjcyIi8+JiN4YTsJCTxjaXJjbGUgY3g9IjIuMTkiIGN5PSI2LjIxIiByPSIxLjcyIi8+JiN4YTsJCTxjaXJjbGUgY3g9IjkuMTYiIGN5PSIxOC4yOCIgcj0iMS43MiIvPiYjeGE7CTwvZz4mI3hhOwk8ZyBtYXNrPSJ1cmwoI0IpIiB0cmFuc2Zvcm09InRyYW5zbGF0ZSgtMi44NCAtMikiPiYjeGE7CQk8cGF0aCB0cmFuc2Zvcm09Im1hdHJpeCguNSAtLjg3IC44NyAuNSAtNC41OSAyMC41MykiIGQ9Ik0xNC42OSAxMC4yMmgxLjU5djguMDRoLTEuNTl6IiBjbGFzcz0ic3QxIi8+JiN4YTsJCTxwYXRoIHRyYW5zZm9ybT0icm90YXRlKDMzMCA4LjUyMyAxNC4yNDQpIiBkPSJNNC40OSAxMy40NWg4LjA0djEuNTlINC40OXoiIGNsYXNzPSJzdDEiLz4mI3hhOwkJPHBhdGggZD0iTTExLjIgNC4xOWgxLjU5djguMDRIMTEuMnoiIGNsYXNzPSJzdDEiLz4mI3hhOwk8L2c+JiN4YTsJPGcgY2xhc3M9InN0MiI+JiN4YTsJCTxjaXJjbGUgY3g9IjkuMTYiIGN5PSIxMC4yMyIgcj0iMi43OCIvPiYjeGE7CQk8Y2lyY2xlIGN4PSIyLjE5IiBjeT0iMTQuMjUiIHI9IjIuMTkiLz4mI3hhOwkJPGNpcmNsZSBjeD0iMTYuMTMiIGN5PSIxNC4yNSIgcj0iMi4xOSIvPiYjeGE7CQk8Y2lyY2xlIGN4PSI5LjE2IiBjeT0iMi4xOSIgcj0iMi4xOSIvPiYjeGE7CTwvZz4mI3hhOzwvc3ZnPg==;" vertex="1" parent="1">
          <mxGeometry x="330" y="183.22" width="28" height="30.95" as="geometry" />
        </mxCell>
        <mxCell id="uihOCpdedheHZuDgh2_N-8" value="Cloud&#xa;Functions" style="sketch=0;html=1;verticalAlign=top;labelPosition=center;verticalLabelPosition=bottom;align=center;spacingTop=-6;fontSize=11;fontStyle=1;fontColor=#999999;shape=image;aspect=fixed;imageAspect=0;image=data:image/svg+xml,PHN2ZyB4bWxucz0iaHR0cDovL3d3dy53My5vcmcvMjAwMC9zdmciIHhtbG5zOnY9Imh0dHBzOi8vdmVjdGEuaW8vbmFubyIgd2lkdGg9IjIwIiBoZWlnaHQ9IjE5Ljk4OTk5OTc3MTExODE2NCIgdmlld0JveD0iMCAwIDIwIDE5Ljk4OTk5OTc3MTExODE2NCI+JiN4YTsJPHN0eWxlIHR5cGU9InRleHQvY3NzIj4mI3hhOwkuc3Qwe2ZpbGw6IzQyODVmNDt9JiN4YTsJLnN0MXtmaWxsOiM2NjlkZjY7fSYjeGE7CS5zdDJ7ZmlsbDojYWVjYmZhO30mI3hhOwk8L3N0eWxlPiYjeGE7CTxwYXRoIGNsYXNzPSJzdDEiIGQ9Ik0zIDMuOTlMMCA2LjQydjcuMTNsMyAyLjQ0eiIvPiYjeGE7CTxwYXRoIGNsYXNzPSJzdDAiIGQ9Ik0zIDMuOTlsLTMgNCAzLTJ6bS0zIDhsMyA0di0yeiIvPiYjeGE7CTxwYXRoIGNsYXNzPSJzdDIiIGQ9Ik0wIDE1Ljk5bDQgNCAyLTItNi02em0uMDEtOEw1Ljk5IDJsLTItMkwwIDMuOTl6Ii8+JiN4YTsJPHBhdGggY2xhc3M9InN0MSIgZD0iTTE3IDE2bDMtMi40MlY2LjQ0TDE3IDR6Ii8+JiN4YTsJPHBhdGggY2xhc3M9InN0MCIgZD0iTTE3IDE2bDMtNC0zIDJ6bTMtOGwtMy00djJ6Ii8+JiN4YTsJPGcgY2xhc3M9InN0MiI+JiN4YTsJCTxwYXRoIGQ9Ik0yMCA0bC00LTQtMiAyIDYgNnptLS4wMSA4bC01Ljk4IDUuOTkgMiAyTDIwIDE2eiIvPiYjeGE7CQk8Y2lyY2xlIGN4PSI2IiBjeT0iOS45OSIgcj0iMSIvPiYjeGE7CQk8Y2lyY2xlIGN4PSIxMCIgY3k9IjkuOTkiIHI9IjEiLz4mI3hhOwkJPGNpcmNsZSBjeD0iMTMuOTkiIGN5PSI5Ljk5IiByPSIxIi8+JiN4YTsJPC9nPiYjeGE7PC9zdmc+;" vertex="1" parent="1">
          <mxGeometry x="405" y="181.7" width="42" height="34" as="geometry" />
        </mxCell>
        <mxCell id="uihOCpdedheHZuDgh2_N-9" value="Artifact&#xa;Registry" style="sketch=0;html=1;verticalAlign=top;labelPosition=center;verticalLabelPosition=bottom;align=center;spacingTop=-6;fontSize=11;fontStyle=1;fontColor=#999999;shape=image;aspect=fixed;imageAspect=0;image=data:image/svg+xml,PHN2ZyB4bWxucz0iaHR0cDovL3d3dy53My5vcmcvMjAwMC9zdmciIGlkPSJzdmc4MjciIHZlcnNpb249IjEuMSIgdmlld0JveD0iMCAwIDIwNS41MTIyOCAxODAuNTE4MjUiIGhlaWdodD0iMTgwLjUxODI1bW0iIHdpZHRoPSIyMDUuNTEyMjhtbSI+JiN4YTsgICYjeGE7ICA8ZGVmcyBpZD0iZGVmczgyNCIvPiYjeGE7ICA8ZyB0cmFuc2Zvcm09InRyYW5zbGF0ZSgtNC42MDIwNzI4LC01Ni43NjcxMjYpIiBpZD0ibGF5ZXIxIj4mI3hhOyAgICA8cGF0aCBkPSJtIDE0Mi4zMDMzMiwyMDIuNTM2NzUgMjYuNjMwNzgsLTE0Ljc0MDkzIHYgLTI5LjExOTQ4IGwgLTI2LjYzMDc4LDE0Ljg2ODYzIHogbSAtNC44MzQ4OSwwIC0yNi42MzA3OCwtMTQuNzQwOTMgdiAtMjkuMTE5NDggbCAyNi42MzA3OCwxNC44Njg2MyB6IG0gLTI3LjM3NTc4LC01My4zNDI2NCAyNi42MzA3NywtMTQuNzQwOTMgViAxMDUuMzMzNyBsIC0yNi42MzA3NywxNC44Njg2MyB6IG0gLTQuODM0OSwwIC0yNi42MzA3NzcsLTE0Ljc0MDkzIFYgMTA1LjMzMzcgbCAyNi42MzA3NzcsMTQuODY4NjMgeiBtIC0yNy4zNzU3ODgsNTMuMzQyNjQgMjYuNjMwNzc4LC0xNC43NDA5MyB2IC0yOS4xMTk0OCBsIC0yNi42MzA3NzgsMTQuODY4NjMgeiBtIC00LjgzNDg5MywwIC0yNi42MzA3NzksLTE0Ljc0MDkzIHYgLTI5LjExOTQ4IGwgMjYuNjMwNzc5LDE0Ljg2ODYzIHogTSAyMTAuMTE0MzYsMTg1LjQ1NzQzIFYgMTA4LjU1NzM1IEwgMTg5LjY4MTczLDk2LjcxMDk4MSBWIDE5Ny4zMjgwMiBaIG0gLTIwNS41MTIyODcyLDAgViAxMDguNTU3MzUgTCAyNS4wMzQ2OTYsOTYuNzEwOTgxIFYgMTk3LjMyODAyIFoiIHN0eWxlPSJvcGFjaXR5OjE7ZmlsbDojMzM2N2Q2O2ZpbGwtb3BhY2l0eToxO3N0cm9rZTpub25lO3N0cm9rZS13aWR0aDowLjI2NDU4M3B4O3N0cm9rZS1saW5lY2FwOmJ1dHQ7c3Ryb2tlLWxpbmVqb2luOm1pdGVyO3N0cm9rZS1vcGFjaXR5OjEiIGlkPSJwYXRoOTY3LTAtNiIvPiYjeGE7ICAgIDxwYXRoIGQ9Im0gMTM5Ljc5MjI1LDE2OC4yODM3OSAtMjYuMDI5NjQsLTE0LjUxMjkzIDI2LjAyOTY0LC0xNC40MTkzIDI2LjIxNjg5LDE0LjQxOTMgeiBNIDEwNy41ODE1NywxMTQuOTQxMTUgODEuNTUxOTM0LDEwMC40MjgyMiAxMDcuNTgxNTcsODYuMDA4OTE4IDEzMy43OTg0NiwxMDAuNDI4MjIgWiBtIC0zMi4yMTA2ODUsNTMuMzQyNjQgLTI2LjAyOTYzNCwtMTQuNTEyOTMgMjYuMDI5NjM0LC0xNC40MTkzIDI2LjIxNjg5NSwxNC40MTkzIHogbSA4Ni43OTQ3MDUsNjkuMDAxNTkgNDcuOTQ4NzcsLTI3Ljc4NzQ2IHYgLTI0LjA0MDQ5IGwgLTQ3Ljk0ODc3LDI3Ljg1ODIyIHogTSAyMTAuMTE0MzYsODQuNTUyNTU3IDE2Mi4xNjU1OSw1Ni43NjcxMjYgdiAyMy45NjU5MjEgbCA0Ny45NDg3NywyNy44MjQzMDMgeiBNIDUyLjU1MDgzNSwyMzcuMjg1MzggNC42MDIwNzI4LDIwOS40OTc5MiBWIDE4NS40NTc0MyBMIDUyLjU1MDgzNSwyMTMuMzE1NjUgWiBNIDQuNjAyMDcyOCw4NC41NTI1NTcgNTIuNTUwODM1LDU2Ljc2NzEyNiBWIDgwLjczMzA0NyBMIDQuNjAyMDcyOCwxMDguNTU3MzUgWiIgc3R5bGU9Im9wYWNpdHk6MTtmaWxsOiM1Yzg1ZGU7ZmlsbC1vcGFjaXR5OjE7c3Ryb2tlOm5vbmU7c3Ryb2tlLXdpZHRoOjAuMjY0NTgzcHg7c3Ryb2tlLWxpbmVjYXA6YnV0dDtzdHJva2UtbGluZWpvaW46bWl0ZXI7c3Ryb2tlLW9wYWNpdHk6MSIgaWQ9InBhdGg5NjktOCIvPiYjeGE7ICA8L2c+JiN4YTs8L3N2Zz4=;" vertex="1" parent="1">
          <mxGeometry x="480" y="183.7" width="34.05" height="30" as="geometry" />
        </mxCell>
        <mxCell id="uihOCpdedheHZuDgh2_N-11" value="App Project" style="rounded=1;absoluteArcSize=1;arcSize=2;html=1;strokeColor=none;gradientColor=none;shadow=0;dashed=0;strokeColor=none;fontSize=12;fontColor=#9E9E9E;align=left;verticalAlign=top;spacing=10;spacingTop=-4;fillColor=#E1F5FE;" vertex="1" parent="1">
          <mxGeometry x="210" y="280" width="360" height="120" as="geometry" />
        </mxCell>
        <mxCell id="uihOCpdedheHZuDgh2_N-15" value="" style="shape=image;verticalLabelPosition=bottom;labelBackgroundColor=default;verticalAlign=top;aspect=fixed;imageAspect=0;image=data:image/png,iVBORw0KGgoAAAANSUhEUgAAAdUAAADuCAYAAABvc50tAAAAAXNSR0IArs4c6QAAAARnQU1BAACxjwv8YQUAAAAJcEhZcwAAFiUAABYlAUlSJPAAAHMFSURBVHhe7Z0HgCRVtf7PdPfktDnnXXLOWURUshmJKiDm/DdHMD+f+kzP93yIChIUBEEJCgICS84ZdmFzTrOzk6fT/M/vVt/Z2qZ7Yk8+H9R2d4VbNXW/Ot8554Yqamlp6RCDwWAwGAz9hhNVReanwWAwGAyGvqCoqEiK6uvrTVENBoPBYCgAitLpdAfqajAYDAaDoe8g6xvJfDcYDAaDwdBPmKgaDAaDwVAgmKgaDAaDwVAgmKgaDAaDwVAgmKgaDAaDwVAgmKgaDAaDwVAgmKgaDAaDwVAgmKgaDAaDwVAgDImoMoWTzYxoMBgMhtGGQRfVVFqkua1DtjSkpT1p4mowGAyG0YNBm6YQ8URE129Py/LNaYnr93GVRbLn9IhUlxdJLKoXk9nXYDAYDIaRBqYpHHBRJRBNp0Q2NnTIyi0p2dbU4aJVwFmLVUxnTYjI3MkRqVVxtWmIDQaDwTASMeCiinhub0ZM07K5UaPTRCCy2eD0VaVFMntiRGaOL5IK/R4xcTUYDAbDCMKAiSqp3uZ2xLRD1m1PS2uiw63rDlzG+MoimTcpIjPGRSQWs5SwwWAwGEYGCi6q6CbR6Lr6tLy2MSWtcZF0DjHlbKzmtNliy7ZoNBDXPaZF3SftrQaDwWAwDGcUTFQRxmRKZHNDWlZuTUtdc4f7HQZnKNbIc0JlRBLJDmlo65BpGo026mdj6852Vg8uqaxYZFptROZq5Ep7a8RG1RoMBoNhmKIgoppUMayn3VTFdPOOtCRUTLOj05iK4fiqiMybVCQ1Ko5LNqRla2Na9p4Zk8k1Iqu3dsjaurQ0tb8+TRzVY8tLimTOxCKZOT4ilaXWmclgMBgMww/9EtU0401pN1Ux3bijQ1r0e7aY0tmI4TK0kU6rLZIyFUei1OfXpGWLiuq+s2Mye0KRi1J3tHTIGhXWdbrEVZjD4srVkRImWg06M0Vc1GvaajAYDIbhgj6JKsLZGu+QjfVBdEkaNzvVi5jSg3f6uIjMGl/khJWIE7QnXi+qABElymXIzZptwXZ+7yKuumuJiuuk6ohGrhGZUEVKWSPXzHaDwWAwGIYKvRJVxK1do8xtjR2yeluH1DWr6DEjUmY7oJhSFbmpNUUyy4leIKbh0vOJqgfnaUuIbNLoF3Hd0Zp2op19ngqNeol+OU9NmZ5Hxbb7v8JgMBgMhoFBj0UVoXPjTbem3RCZVA6RK1bxrKkokgVTojJFRZVJHXJhF1GdpaI6Mfe5nbiqaDPGdT3trRodk3IOw4vrgikRmTkuSC9386cYDAaDwTAg6LGoMr3gA0uSrqcuYufBUfTIZeIGhG3quIiU0daZozgOQxTp6fvs6pQra8HkqCyaFnECnO8SaG9lX6LjdXUpN73h69pu9Rp2mxqR3adHXacog8FgMBgGGz0WVcab3v1iwrVxetBuSk9c2k3pmVtZln8WJBd1JkQ21KdllUa7DSqsCCOdjUgVz1dxHadRblfjUUkBb9NoeZVGrq69NSv1PG9yRCPfaN4IeaDATdR7qMIeUceg6/toMBgMhtEL9KBPcR3aMWN8RA6ZH5W9ZgQT4ucSVEQPMdzS0CFPrkjKi+tSUt+ys5cwwriurkOeWJ6Sl9enpKX99VGoB4KLAB80N6pLTKpUxPuDVColyWTSCWIY/E4kEm57T7B582b55z//KW1tbZk1BoPBYBir6JOoIqB0EqrV6DLfhAxEp4xffX5NSh5bntTo8vW9hAEayjSGyzan5aFXk64Nlag2j7YG0a2em05Q/cGLL74on/vc52T9+vWZNYGgPv/88/LJT35S7r333szarvHKK6/It7/9bWloaMisGV7wkbTBYDAYBh59boHMl+lEDJnE4ZUNKRedrt4WDI3pDogwbadEs0/pcRu35xZhj/5Jqgp+fb08+eST0tra6n4jPgjtpz71KSkvL5djjz3WrR/JaG9vlx/+8IfywQ9+MLPGYDAYDAOJwnfrUXHc6l7zlpamtvzp3HxASLc2dciKLSlpiffy4F4AEWXxWLZsmXz1q1+V+fPny/e//30pLS1165ubmyUej7vvgGNaWlqcYIWP5zsCvWnTJpc+zgWOIV1MVBs+llRzU1OTW9fY2OgEn3Wcx6eit2/fLtu2bcsZdZLGplyO89v55NpZV1dX58oNXxfn4jq2bNnirisXduzYIRs2bHDXEb5eg8FgMORGwUUV08vY0SMWRWVqbaTXk+FXlIibSP+geTHXq7i3otwXbNy4Ub75zW9KVVWV/PKXv5SKigq3HrF65zvfKddff737Dmg7/ehHPyq//e1vOwUMUbrzzjvlhDedIGeccYacdNJJ8vLLL3e2yyJIL7zwgpx11lny9re/XU4++WT56U9/6kSPbc8995y88Y1vlJtuukne9KY3yZe+9CUndhdffLH893//t3z84x+XU045xZX73e9+dxdxJH197rnnuuuk3C9/+cuydetWJ+5nnnmma+8lRc22+++/310zx19++eVy6qmnytve9jY5/fTT5ZFHHum8XpwDIlyuhXJPPPFE+cc//mHtxgaDwdANCiqqpHmfXpGWddvSUlMeUWGMyv6zozKpeueMSrlAKpfJ8+dPjsihC2KycGrEic0Ty5Ly8pr06ybbLySI5L7+9a87gfvxj38s1dXVnb14uQYivHCkiighOuHoju2Izh+v/KMT4N1339211/oIj2gP0X7DG94gf/nLX+TXv/613HrrrXLddde57Qg250HoaJ/92te+JtFo1K2jPISaz0svvVRuvvlmWbx4sTuO6PXDH/6wLFq0SK655hq54oorZM2aNfIf//Ef7u/gN2LNdo4/+uij3fX+/e9/l2uvvdb9vVzPu9/9brnkkkucGCO4V155pdxy6y3OceA40sff+c53nDhzXoPBYDDkRkFFlUDnmdVJ+eODcbnvpaSbD5hewvTWJfpkMv3sXsIMgaHTE716954Zdb16l29Ky2V3x+XXd8VdGnmg7DhiiFgQpU2aNMlFqgyN6S1og0XwdtttN5k7d6585StfkbVr18oDDzzgROpnP/uZjBs3Tj7wgQ/IzJkzZe+993ZR6GWXXbaLOP/gBz+QN7/5za6MWCzmxP20005z62bPni3HH3+8TJ8+XZYsWeLE7Y477nAC/+lPf1rmzJnjzk/USlRMuVOmTHHiWlJS4s7LdSKc//mf/ymf/exn5ZBDDnHrEVW2IaCU+9prr0lNdY1zDjgvEfYXv/hFqa2tzVypwWAwGHKhoKKK9jFh/trtHfK3p5Jy7UMJeWFNyqWAiT4RTl7jVlocjEnlXan7zIrKAbp+Uk1EdjR3yM2PJeQnt7fLP59PurZV3oIzUEDwaDf82Mc+Jq+++qpcddVVedsXuwICiGgigiyIIiJNxydSprTXkmL+yU9+It/61rdcCvfBBx900THRpgcCV1xc3BkpI/CUW1ZW5tbxG/HjOPDYY4+5aBbRJtJE2G+77TbXhsqSC7S9ck3/+te/3HVwPaSiKefpp592EfI555zj7g3C+5vf/EZWr17tUs8It782g8FgMLweBRVVDyLLNhXXF9al5C8qkn99POHm8aW9dM8ZgbjuNYPxplGZPSEi7QmRh5Yk5ef/aJc/PZyQ5RqdZk+mPxBAwEi3vv/973cR3o033uiiVt9W2lcgPHR0QqiI/GirJFr0E0TwOXnyZHnve9/rriGM3ogWUSqC7stlmTp1qmu39R2tskGqmf0QT38M13bMMce4yJX1Bx54oPzqV7+Sfffd10W9n/nMZ1xKOewAGAwGg+H1GBBR9aCTEdHmA0uTco1GrYuXpKSxVWRydZEsmByRkpjIqxtSctXihPz6X3F5bIVuz/FO1YECYjJr1iypqalxonrAAQe46I02UA/2IXr1bYkIZLboso3IzgMxJTKlLZPjSSuTSqUTERElCxEiKdWJEydmjuo9Fi5c6K79C1/4Qme53/jGN1y5/F25QOSLEPP3sq+/Fr7TPsvfR/p3/PjxLq1Mu+uPfvQj1+GJyLi/DofBYDCMZgyoqHqQwl1dl5a/PZWQPz0Ud5Pz0/nomRVpueSv7fL3pxNOfAejp28+eHECdDJiuAlRHCnPZ5991qWJ6dRESpd0aBh0SLr77rtdypV96ISEmNJ7loiRyJEImHGxpG4ZPkNK+K677sqU0DeccMIJLnokbYuQU/by5ctdpyXEj+unJzP7cF0IP5EsaWY6S9FDmGvnukkbM2SHSPbnP/+5W2h/RWQRWCJqG1pjMBgMXWNQRNWDl49v2MHr40jvdsjqrWn3/tShEFOiNYSP1ClAgBAbxIQetPSKZR2deJ544gk5//zz5eyzz3ZRIALj07akSxHOG264wbVFnnfeea6NktQu7aqUT2cjBJYewO973/vcPh/5yEc6z80n7ab+N+A71xdOD2evI01Lz1yiTSLPCy64wA33QfwQQ66N3r+IKtv//e9/u2tFUImk6ThFhymu5+qrr3blc19I9+IEcMyHPvQhueiii1xbLr2HKdNgMBgMudGnCfUZHnPwvKjr2Rvuzct+V97fLk+tzp8inFBRJB84rth1WPr7Ewn57X25J0oApTGRj5xQKqcdHNtlvCtR7nOrU+5VdB69nVCfKGzVqlWyxx57uPSsBz2CGTpCe6VvY3zppZdcj1sitj333NONISWypUMSUR7RIeldjlu3bp1L+9LDF4HyoFz2I7VaWVkp8+bNc8dz74kymR7x0EMP7WwLJeXMOUnXEi0DokiuxZ+bY4lIiXpZEMUFCxa4bV54OYYImb/1uOOOc5Eq+yG0S5cudeNcKZ9JLyZMmOCOIRrl/rCdXsykkmlf5bzdccVgMBjGKrCdhRXVdpErFrfL0wUU1Q+/UUX1kNguYlkIUTUYDAaDoZBAVHfmG/sJphfcuCMt24LRHgUB4sncwQy1MRgMBoNhuKPfoorwbW7okH89n5QrF8dl/XY6yGQ29hO0td79UlJ++c92eWhJSpqyXpJuMBgMBsNwQp9FFXFrauVdqEn5/b1xue25hHs7zWHzonK4LpUlfVdWUsrzJ0Xk1P1jskA/SSf/+LZ2ufzuuLy6fmCnLTQYDAaDoa/oU5sqojeuskieW5WWFVtTLqJcODkqZxwckyk1lFUka+rScutTCVm+Ne1Swz7A7K5Ntba8SN66T0xOPzQmEyojLjp9eGlKrnssLg0q4uN0+wl7xmTRjIjUhdLC1qZqMBgMhqFEnzsqIWUrNqdlfX2HTK8tcm+kQdCY29dPnE80Wd/SIc+uSsnDr6Zk3Q6NMPX48TlEldMT2R4yNyJv3b9Y9pkdkcqyYJ5gImJeWr52W1rueSEpi5cm3e8TVXinjd953SaqBoPBYBhK9EtUmSy/rFiF0PUCLpIS/Z5dCvslknRg6pCHVAyfXZNy+ebzj9kpqlc8kJCFUyJyyv4xOWK3mJsPmKGQ2WUh0g0q0s+vScszq5IyWSPislCK2UTVYDAYDEOJnvf+Ve0K6y5fK0uL3JCX9fVp2dLY4cSTqDIM9mMqwtkTiuQdhxbLWYdrFDozIiVR5r8VmVBVJG87sFg+f2qpnKSfCCXjUUOnciC93JrokC1NHdKe6pDZKshhQQXZxxgMBoPBMNjoUaRKhPrUypSbCYlZkcLiyaG8C3VydcRFn6SAi1VIc5VItNmsES7RZEmsyLWXxlRcK1Sgc10CYkqqd0tDWlZv65AdLcFE+2GQIq5QgeUtOJy/q/e2GgwGg8EwUOhx+hcgbuvqeK1byqVhEchwYIq4EbnOmRSkg6vLun4xeVdAtBFPpjDk7TaIKr/D5+OSiXiJbudMjHT7InSDwWAwGAYSvRJVgNghrq9tSsnaOo1ak0E0GQZFlWvkutu0mMxUcSVqRXB7AoriJSgtcZElG1KysX7XnsOAokgdk37ec0bUveDcxNRgMBgMQ41ei6qH79nLhPi0qbooMktcEb6JlRpFTorI9HERl+bt6jSu3VTFdJWWuW572nWEyhZsxBkxnTepSKaPjwRp48w2g8FgMBiGEn0WVQ8i1W1NaVmxpUPq9DO7vRPQUWlSdUTmTy6S8ZWvF9cg+u2QTTs6tJy0G4uaO/otkmnjirScqFSV9Tz6NRgMBoNhMNBvUfVoT4hs0Ij1tU1paWzLUsQMENeZGl3Onxx0ZuKURLxMcbhsc9p1gsoWU4AIT6mNyIIpEZlYFYxdNRgMBoNhuKFgogoQRCLOlRq10t5KL99sIIj01J09MSK1FUVunmAm4XfDcTL7eLDvhMoiN/50qopqvh7FBoPBYDAMBxRUVAHCSEej+uYO93aZDSqYcY1iw4LJmWhvRTST9CDOUlPWV5XRFhuVmePEjUe16NRgMBgMwx0FF1UPhJLIdWtjh+spzNAYUr3dgfGuvKN14ZSoRrQqwLS/ZrYZDAaDwTCcMWCi6oG40t66pTEtr25Mu7fYZIsrZ2Zawmm0m9LeWlHUbU9hg8FgMBiGGwZcVD0Q0pZ2cW2tDMHx70VFTJnrl8kbplRHpFQjVRNTg8FgMIxEDJqoAppOmciB2Zh4LVyDCitvuGEMK+NNrd3UYDAYDCMZgyqqHogrr4CjkxJzANtsSAaDwWAYDRgSUTUYDAaDYTQCUbU40WAwGAyGAsFE1WAwGAyGAsFE1WAwGAyGAsFE1WAwGAyGAsFE1WAwGAyGAsFE1WAwGAyGAsFE1WAwGAyGAqHbcaq53nFqMBgMBsNYARLZk9kcup38QbfLppYevF7GYDAYDIZRCNRxfFmRlES7l9VuRZUodX2TiarBYDAYxiaQx8nlPRdVa1M1GAwGg6FAMFE1GAwGg6FAMFE1GAwGg6FAMFE1GAwGg6FAMFE1GAwGg6FAMFE1GAwGg6FAMFE1GAwGg6FAMFE1GAwGg6FAMFE1GAwGg6FAMFE1GAwGg6FAMFE1GAwGg6FAMFE1GAwGg6FAMFE1GAwGg6FAGBBRTafT0t7W5j6zkU6lJJFISEo/+wPKf3jxvbJjR717M4DBYDAYDEONgosqArdh/Vr5xY++J489tFhSyWRmS4CNG9fL5b/+uaxYtjSzpvfgHNvrtslFZ79DXlv6somqwWAwGIYFBkRUt2zaKL/66Q/lW1/6rDQ0NOwSsW7euFH+ePlvZNWK5Zk1fUO6Iy1NjY2ZiNdE1WAwGAxDjwFtU311ycvy4+9+U+Lt7Zk1uYEQs09zc5O0NDe779mp43Q65VK+LbpPW2uLpFM5UsuknduDfVpbWlyaOQy2t7W2dp6H7RblGgwGg6FQGFBRPef9F8ktf71eXl36ct42VEQNEfyvH3xbLjjzDLnwrLfJJV/+nDSGIlw+N6xbJ5/9yAXyvnedJp+46Dx55eUX3DYPyiEl/K0vflbe/54z5CPvO1NuufE6ScTjbjtlrFz+mnzp0x+W92sZpI6v/sNlTlxNWA0Gg8FQCAyoqL7n3PfLfgceLJ//+MWybeuWzNpd0apR5yc/eL7cefvf5azzL5JzPvBBee7pJ524bt28ye2zRT8/cdG5svSVl+XM8y+QY45/k3z/G19y2zwQ5o994Gxp2FEvF37kk3LUG06QH176Nbn5hj91Cvf7332ai2A/8OGPyxFHHys//d4l8sfL/1eSWRGtwWAwGAx9wYCKaklJqXznx7+Q9WtWy7VXXO7St2GkUkl5/JGH5MF775Zf/e4aedfZ58nb33OO/O5PN8rqFcvl3rvvkGQyIffccbts2bRJLr/2BhXeD8gFH/q4/PTXv8uUEuA3v/yp1NfVyTd/8GM59e3vkg9+9FPywY99xkXACOqa1Stl7epV8snPf1VOe8d75DNf/qZ88ZvfcSKbzOpMZTAYDAZDXzCgogrmLVjkxOsqjQifefIx18HIIxFPuPTwzDnzZK9995NIJCJFRUUyZdoMmTp9pjyhgtvS3CLLXl0iM2fP0XUzdHtEItGoTJ0xI1OKuPbVa35/mW6fLo8+uFhu/9uNGvneIi0tTRKPx6W5qUnmzV8oC3ffU775hU/LrTddrwK7Us55/wdVXL8uZeXlmZIMBoPBYOg7BlxUEcozz/2AzJ43X376g0ulbuvWzJagHXTThg0yc9Zst58H3+fMWyCrVi6XRCIujQ07pLSsTGKxWGYPceLr4ce9Ln3lJfnd//xCLvvVz+S3//0zuefOf8j8hYukKFKkx5fLdbfeJUced7zbfuYpJ8i57zjZRa/WpmowGAyGQmDARRWUV1TIf/3v71XAVsvVv/s/ibcHaWAizoMPO1yWL3t1l45MpHxfev4ZmTFztpSWlsqESZNdCpeoMxdKSkpk/ISJcswbT5Tf/flmufqm293yp7/dIVf+5VYZN36i61EcixXL//vKt+RaXX/DP+9TQV8nl37l/7myDQaDwWDoLwZFVIkqZ82ZJ2e970J59KHFbtgLKC4ultPf+R433vSuf9zqhJVeuq+89IIb9nLyGe+QsvIKOeiQw2XdmtXy4rPPuKi0XQXy3n/d4coARKIXffzT8sjie2XzxvVSrsewbK+rk4cfuE/PL7L43rtddNrQUC9V1TUyddp0Oen0d8iypUteN/TGYDAYDIa+oEhFrCOcSg0j3SGyvun140G7AqL43NNPyBknHCX/WPyE7L3fAZ2p3bptW+WTF53ntv/it3+UE086zXVe+vXPfiR/u+HPctiRx0pUo9fHH35ATlJB/fhnvyTVNTWuR+/3vvFlefC+u+Xwo46VZCrp0sj33/MvufHO++TQw49ywvzlT39UVq5YJgccdIgTaCLgt556hlz8sc+46QzpHUw6edHue7no9IlHH5KPfPrzcu4FF2tEXOaucaxiyFLgyr3c7DMMdwSUGbqmk3x2yzAyMZTNcF1xiU2Ty4ukJNo93/gbopdccsml+QrkT2yM9/4P5d6QtmXoS1V1decF0y662557y4SJk+WIo4/Tz0lORA8+7AiNZOeqUG7Rc3Zo9HqmnHfhh6SyKjiWXsSHHnmU/q5yAjt3/kL52Ge+IBWVlXLMG94kNbXjnCged8KbpUqPqd9eJ7W67ox3vtdFwpyX5fgT3+raZZsaGtx1ve+ij8opb3uXi4a7uKejFjtJHHwGvwdvCe453z1UYMdgPYw0ZPMGDC53AkPXCf1htBmZeL0N8t8HZ8m2N7m0kFWVxUUSjfSMZQWPVPsDolxusu8FnA22deg+RXm2e1AOCHd+CoMoluPzbR8L8EbQfbr/+cf9uxPZv/uBoLb030y1uY9MHVIXQX3u/G0YfthpAPmuz1gnbzKfbkPwT+ZXv9EplyFKuHX8b7wZ0chtgzKfbofQ9wIgm0vuI8OZrrjE195EqsNKVA2Dg04yZ5yYlFZ0Uj+TaiiDTRkqux+7AjekK4ftdUdkVriPDM/48CQuZoiUFsj3iH7PMN39NgwfBJxx39z3DuVMWj8TyqFUhjdufbCL/6cT1GZXNmnXvQN0njLDBc8J+BLV7zHlC/0pPJeMNyMDu3ApywbBJXSnc5/OfXei1zYIUCafGX6EuRS2Qbm4xIeJqiEvArIGZCaij+uyI5GS++qTsqY9I6qKoNY9EwPwdXxUZO8KUSJqxK87s19KNzAVM/23tQRnbNnmfmf2UZYFD4t+x/SmlXMxXQ6pLpWZ5cVSHI2ooYx2GkkzkMML8MZxB6PnDGBKmhxvUrKiLeXqFuTjTYVawgOrREr0+05uZLiji+cM/PG8Yb2aqF14o8ZKDWqRHFBVKnOUN6XwJmK8GUkIuKQ1rRXLvAU4ZjviKblje1K2JAKe+foODtjlQybFRPZSG4S4Op64T2+DKDPgWJhL2B++61flULAOLpXqcmhtmUwtjakNiqoN2umoeS7x1UTVkBPOKCrRENQUSyolq1uT8sMNCXmtPaBwd7RBTE9U47hnuejDgHHVTy03yXfdjrfJegyiPh+6LtgHkvPpCe/IrktMyzttXJkcOb5MSaukdgbSp/fNQA4HBEaQJXDE4E2jCuolaxPyXBumKzBwXQF7dIwawoMrPV8CrgR88d93frp9MlyBV443eqbgEx4WyXE1JfKWCeVSEou5LEdEBdZ4M7zhbRAT9iCocGml2qDvrE/I6nhgg7rjUqlW7ZvUBu2uNsjZHT0IvnhewRnPH2+TwtzyNgj7w1KiXHnHhDI5uKZMimPeBnlBhVMmqoYcCAuqN4zxRFKu2ZqQa+sDMlcokeaUKoncEblRpZHqsUrocfrpSKrrIDYiym8vnp2fup3vLiLxRlGXHcp+FrZPVmP4iekVUlUSk2iUJSOsZhyHHJ280U8MYYq3RSUScn99Un60RbmkW+HNXOVNPmNIDZboRngzuTjgy06O+O87fwdcCn47/mR4w7malDPbdcFhm6K8+dCUchlfVixRFdadxtCLq2E4IdsGJdUGwaU/b03KVWqDQJUK12wlS77aY30tNqha91VOwRe4ENiYMK8y9kj399zKtkENyqP6jA2aquf9yLQKqS0tcfMnOBuU4RGZkckVJqqGLFDZPuWSTCfdSwRa2+Pyu20dcmuTElmN4mV718juVbG8hC4UlFbOOP7ytTp5YkebVOoJPzW5xBG6uKREYiqsPuqA2Iahg+MN/2UEFd60xBNyY11K/thQJNUqYlftVyv7VxMtZg4aIMCbduXv71bUy7+3NYsGvnLRxGKZVl7qxrwHwqq8cZkO481wg7dB3qlnkp+m9oRctjUt/2wuknGxIrnpgHEyr0IFLXPMQMHboF+oDXpKbVC10uUjk0pkYlmpxJRLO22QOou9FFVj3piB0kgrnJSLiziSAanTSm4wqywq8ysxjEF0OJAL56iMReTA2mBsMERk/DAvNuB6uEbE328zDDGcMVTueGOodUU9YWKmaFSBI8Zwg1x1XcgF3pSroTt0fJlL/8JpRB4ec13OaXQ0D67XMHwQrg9XP3BJbRAT72CPEKJpxRGZXR4dNBtUUxyVIyaUu+8u2HBcCtkgd82955GJ6hiAJ7SjiCd0KohWMZSAKGNwyRD04PS+XzB/czIwjnpNepW7PIiGoUJQD0GEkQpEVQ0PUSuAM93774UFAYOTVKVHYAiZiY3FsSbYyTAMoXXjuNTh+ONsEI59xgY5ezDIZPI2CNYklNdOVLE/naLqngD32VOYqI4ROII4TofTLxiioU/vO+MIofUh82T2hDYMDzg3R0WrU1RplBpiwBE4k2Yhs+E4vvO6jEPDC9RGUEVkPXZyiahwyKHXlHK8DiJVlynTdZ5DvWGSieoYAh5XQGo1kRlhLQSh6RRwz5Z2aeJLn6APGddCWlqXTmPoP/xvw6Ci06A40gSfQUSojlkBeIPderkhIXXxvpcFXxyPua6MQ6b/6BYWw7CC1ktgg4I6cjzyAtZPUMSD2+Kuzb0v4LoCHu106vt6VSaqYwmwRBc47cZpQaB+2sa4kviuLW3y7RXNrldnX+CuBzHV6+GHGcZhiE6+BJkOV1f9AFR5oj4un1va6HqB9wWYPXc9jjOsYI2xZlgjU09OUD2XXOX1HQyf+fvGNvnxyma1R5mVvQRX4Hnt+BSs7hNMVMccMEA7l6j+jupalt62Z+AV3rc1Lt9e3izr24M2tr4iMIyQOfhvJ/r3wBn6B2/wdqkZXVdSxLQMwTjj3jaDIaiPbI/Lp19plE1qBfucSdbjOrnsr80wMpCpNz5jyiX6dPSgc+3rgFN/28Z2+b4K6raEimJfWcClaFkB34PrcmW5awx26SlMVMcYOvmhZCnSX4dUR+WI6pgcXVOsv3vO6jYl4OJtcfnqskZZj3uoh1J2L/kXQkBox2n3qz9lGQYS8OaImpgcpbw5YVzMCWtPgYAiqJ9booKqRrDPLQYZeMMc/OD/fhZoGCD4etm1fnDqj62NyeFVUXnbhGIVpN7ZoDu3tMv3VFC3OEHtLwL7Ewir+9knmKiONTjCBGyBvgdUxeSLc8rkjWoce0pnItQHENTXGt20YpBoVklUtvS5bWynmLpr2/nDMAxBfU8vjciX5pTL6RNLXJTREyCgpHw/q4K6WY0gbCnTg5t1Q1+j1Z20Mc6MFIQdH7i0T2VUvjynQo5Wce2pDWpTwty/tV2+uazJCSqo1lC3Qe2Rmqc+Ibiu/vPIRHUsQnnjqYNBZMxfT1MvpFu8oG5mKhNFsRZy8YwyuXVTW5/bVUH/6WwYSITrB7qU6D/wpyfUgSrP7UjIJ1/ZKahEuGdPLpWbN7a52W0MYwdhLgU2iM+eMCmIUO9XG/SFV5ukLpPq4Pgzp5TJlWtbXRtrn5A5rI9Hd8JE1dBjMKfvfeodfk29Qy+oEIgp6t48qVT+tqVdXmyki7zbZDA4QJUXGhLyiVcanKB6ekwvici7ZpTL8y1JeVoFdxiM0jEMcwQdI9vly+rU78gQBht0QGVM3qwO2r+3x2VTO52N3KYhgYnqWIN6g33hG/No3kO6ZXmzbAyleUnffW5updQUR9SDFPnDulaJWypuxKOzXQn47+6jd3VLIPGsCuYnXm4I2t4zoGPcxSqoNRquNqdErlDe7Mik8QyjFNl2oZd2Aqf+tk3tcsmy5s4IFZSqDfro7AopixbJtmRa/mtFs4tmhwoDJqqua3IqmDXDlmGw+IHNDLZ29RIsjFntDvDz3+odflPJvCFkGCHP/LKIHDeBF3oF+Oe2uDxfqKhDywi63RuPBntJpzPfkxmuMFFI5tPxpgdGCw48rpHDpzRCXZfV3r6oPCrvml4uJWoQKenJpqQ8oPsWgjbZcB3gzB4N7YL9CXEpWB/USU/CSrh0iwrq91Qwt4aaCmi2Orgq5myQTx7fozxa06oczfwebBR8Qn0aezHclcVFUq7Ryy4er2FI4IyKLhCY6QDb29ulpaVFmpqbJVo9XmK1E6RU2bmgpvR1nU6coGqE+oVXG2W7eofh2qzVY365R7UcP6nUdRx446N1skkJ/+ZxJfLLfWqkoouGWh6SOzc2yWWrtkupiuZ5kUaZWFUhlZWVUlZWJrFYsXtxcHVpVD1Qle/8RRkGCGHeMPNNe7xdWpU3zc0t0lFeJSXjJ7thWHuMgze7VhC8eUiN25eWBr3Dw7yBFt+eXyVnzyyXdiXCe56pl1daknJETbH8eu8amcQrbbrA43Ut8l+v1UmRXtO7Ik0ys6pcKhxvyiVWkpkMPUIZKtju+pNSq85fifKI34bBh+cSoooNiodtkNqfmNohOLSncilbjuAS41C/o4Jap/YlXIO81ea3e9XI0SqqW9rT8tYn65ydOkV//2jPaqmJdc2luzc3y/+u2C4lypGzo00yRW1QuXKpHC65ifWjyqWoTK6MOBvZHfgbCy6qeCCSbJc5k6rNDg4DQEBHaBfxpR2h29raAkI3NUuyokaKqsbnFVVSLl9Z0ii3agQaTqlA1UNrYvLH/cZJuR7bGhJVOrBcvW+tHKLimo+HXYlqqYoqnCyLFcms8VWdb+U3DB4CIxh8kilIJJISV1FtdqLaLPHiconUTMorqmTnfrOqWX69tlVaQrxhr/0rY/KnA8c5p4uev4jqyyqqlfr7kvmV8t4Z5V3ajp6Lql6HXndVcVomVgcTpxuGBm5iBeUSooqD5m1Qo3IpXTFOpLI2r6jCpS++3CC317W7JiYPOrodo47YZfvVumYoL6qkhiv195X71sihtRrBdlHtAyGqXct4L+Fumt6wdDJhgjpMQD1k10WnQOlHd/VEz95Ld9NotLbYEdeD1zR9do4ashxEa9eH4Ccr9YEJpWl6BeURxjCtDoDZwaEBHOHed1LFfwYf3QJaXDi7Qj44o0xKQ1aG9e+bXua4lF0WjtlVG9r6NW1hGNijeKLdjYXs6XUbBg4Bp4Ka6Px0/3YNOPOd3avlreNL3AvKPYhSv7xAbVDILnm0qiP3m9UtfZ6tqz8oqKhiDPFqeXOEYfSgSgX0J3vVOFJDYEh+UHWxHKRCC513xiE78WxzUp6oTzgvs7dQGnW2fxlGJuAFkehH1PH6mEaeCCvG5pCqmJw+tawzIxKmB+ZvWWtKbt/U5rJk/UWnk69RkmHkAqpggxDWMyaVukwYQ2gOrozJwoqY2yebLtT4w41Br/JCcKk3KGj6F/K2t7ZIR7xFdp8zLbPWMNTAuFA3LL5NlRQe7Rmp8hplbP70rwe83K4RxH8sb5bbtrXLIUroPSp3vkyY7XPKY50RDVhQHpXDVYhJ02Sjq/RvSUmpXmdcyqMdsnDmlF08XMPgAd44YfJtqqF2sO7Svx7wgozF5Ro1XLa+TfZSTtBs4PdGaKeVRSWWIR7FTCmOyIlqPPNxsafpX/je1NAgU2pKZFJttXFoCEFdAN+muosN6ib96wGXtran5acrm+TvW+JyrPJonvLJI6YHTlcu+ePhz+4quger85+PS8O+TZUb50S1vVl2nzs9s9Yw1CiEqAJIvU2F9ecrmuWmre27vBGCCSQeOGyC1OJGZkwmBhNq5SqyO1GNq6hWmKgOKQohqgCWNKmw/p8K6+9UWMOD85kF57r9x8kCddI8KAke5iuxd6K6Q0W11ER1iEFdgP6IKoA5m1VYf76iSW7eGu/kEofMLInITQePl2rnxQeFdGWDwLBvUzWMbkCpiUrcz86vlHdpJIFnyMB+FsaxwjnWwWmWsGGE+vQQXt6cklcaLa07lgAHqmIR+eicSrlwepnypMg1C8AbnCt44jnDAo/0/04w4H9FS0pebrQJIsY64MWU0oh8Tm3QqUyRqb/hUVwXONUTG/RqU1KWNQ+cDTJRNfQKEHSnsAZtrD0BA/svW9MiH35ph9y6uS2z1jBWAEsq1cp9cl6lfDBPR6VsYATJhly1tlU++uIO+cvGNhVV1hrGMuDN5NKofGNhlZyswhruvJQPsAYb9MuVzfKxlxvkvrp4sGEAYKJq6DXg8AQV1i8pqc+Y0L2wEsXevbVdrlWj+L5pZXLerIrMFsNYAiyh89KnVFgvUmEtR1i7oA6tC4yR/rk6YxjPi2dXuCjXYIAF49QGfW+3anmr2iDX6tQFmJOcySP+rA79hdPL5fQpZZkthceoEVUc2IRG9K3qgCRTwW/DwAEO1xZH5NLdq+VtavAYepMPLakOuVkJvWdFVM6ZWe7ecDJcAW/iyqM25VEqHXi4hsKCcc0I68VeWDPrs4Ezdue2uBxZE5NP6P4zyqIuvTcSgEPQDo8SAY8MhQdUqFYb9MM9qt1kD/QIzocWrYPb1UE7XffDBpFCHiiMeFHF6EHarY1peWplSh5YmpQX16Wksa1j0LtSjzXAYbq6X6Le4rsn5e9gQFtHs1bGuFjEdUYYjkBMGdK2cUeHPLY84NGSDWlpV6NoPCo8ENaPq1BeOI1xrPk50ap1MrlkZy/z4Q7n3KtTv3ab8mhZSh5ckpRlm9NOXM3RLzwCGxSR76tzf+rEUsnHFJoNmLwGLg00RrSo0qFsR0uHvLg2JU+qoG6oT0uTiunKLWl5Qg3jsk0paW4PZoYxDBwQ1m8sqnKfucAg7aPHlchzzUlZ1ZIcdp1NyGzUNXfIc6tS8vTKpGxpSDun7DXlz0Ov6jVvTUuLRq7Go8ICYb14bhCB5gLGaZ+KqNxVF5cXG/s25nkwgZhubuhwzv3za5LO0W9QHi1Zn5LHlydlXV2Hc9KMR4UFVoeI9TMLKvNOjUpG5KCqmHuT1urW1IA6yiNSVCEl6blXNwXiuVw9QdK+/j5xw3a0dshL69Ly5Iq0rNmWlsRwfyJHOOhunq+9i0nT360RyST1KM98tl6uXN2S2bIrch89cIAniOeSDSnHo9XKE1J2HmRAcNqeX5OSZ1RwiWIxnIbCARuYL1Bl7Or5s8plDxXWD7zQIJetanY9gYcbuKQGtTdkyJ5alZT129MSD/GEDMjWxg55WrfBI74PwUQ/wxLdd1frObAz+RJhzPx2/qwKJ67vVRt008aB6yw54kSVdtP1GpESQbysHiBGMd9jBtnrmtLyzGoi2bRsa+qw9o0Mdo7ZKxypu8JcNYy/2adGPjunopv2jOB6BvqqiBhWawT66Gsp55y1xPPzCM5s3qEO3IqkE9jtGtVatDHwgAO02/+P8uZr8yplWml02DUfwJtlyp8Hl6RchgxnPx8QUrJpj2rU+jJNVCrEw9BHGFxQnYNQpZyCiSKu3L9WPq6O2gTlVTacTdSlv5czIkQV3gWplaDdFG8PzzDbsOW6GeyCUdyoRpEUzAtqFIk+MmORxzTCg+FJyaYHUCkg2viSiJw7s0JOnlqm9dIhGzUsDM6Ih5khNJfUX1Z3AXi0TiOJJ1UgX1ibcs0F+XgUvgx2IU1M1gNxfUmNYrM6u2PNKFJPbsncHXgzkFEXZ6mOReTdM8rl7dPKHI82taU6U8GeNwFx2D/4HEjAl7g6ZTQLPLEiJa+oc9+mF9RTe0RgsGJzWh5Te/TaRpqoxh6PQGB/dnIJ+zOQQ6bIiGCDiFiPm1ji6mJ9a0LC770JriRTc5mP3mLYz6iE+CGgq+s6ZO22lDOK2QTkZlWV8ZqnwHOsrSjSSKQjZzsY+1aUFsmCyRGZPi4i5SV6E/p480YKwjPjMJtJPB7vfEtNoqxab16tM1KkT8ZpNMAtg+DcZ9JtvDvaTfKg39nPL2S4+ISUyiI332ZQN0hmkZRH0rro/eX8bm1QH/xa35aQ2zY1S5MeUJlOyftiTTK+qlIqKyqkmBmV4u0FnaYQx6penSmiCRwseMS1hMEb5qqVR4hnu/5h4yoiyr0glRfelyvhJShV8GhKRKaNK5LS4sEw54MLzxs/Exe8aW1tdbPgtEdLpahmkuNEcbRIJihvgvp/PW/oxcv3MG+cE6c8SOldY393HnfWIuVhh1TpwptWdXWIN8zolZS/bWqSBlXyKuXNmbEWmVpVJuUVzKhUJsXFJRJ1s+AMzIxK8Ij07UoVVLIX/B1cWxjF0YAbcAieYY/IqJEdCcPzaFwl9igqU6qL9PqD9aMN2TaIGZU8lxLlNdJRoTZIiVChDlR1CTYIHgUiG9ebnFD7AnfgW8CpgEOeT9k2iOO5kxUZG0QlscYtme0rWxLyjy3BC82rO1JyjnJpMjMqKZd4U1axVobjUlFkdExTyB+OMaO9dF1dkJ7LTt1y1WVqzOY5gSySVzcGBnOvmVEZr0TFgNK+AbHD4DhvQBdOxShGJKYPwmgkMwgTmunmvKgyTVib6B8+bookNAZgyi+I7Yyh3ux2/b1D3eom9awb9R42KYOb+NS6YZgM3dRVp9x+rUroYFYTPV7Pmda7iS94cFnSffLKYB6CYAnEmeOo0kWpNjmlNCE1lRBaRVUNoxfVRbOmur+hrwZRTxGk6DZ3yAblQps+kfA6DBwtRHG3qUUysToiL65JuQ4m+8+JqtNVJEs3pNWQ5uCRHqc2wBnN3ZRHk2sizkiOFh553vBcwxsMIa/sampq0nualMjkWZ284d64T90XQW1Q3sAZJs9q0kp3vIEv+r1Z7z9vEeFtRvAGIwl3EsoReFMMb0qTUlYET+BOhje6nqg4zjXpurnpdjmtJK6iFPCmtLSsc2q5ogKLKpxp0YjylQ0p15GNYVe5eFRdXiSLpkTVcRfXgbJV/7hD58fUdnW4Zoa6HE1QXBZCPF4N9+7Titwn9mk0oSsb1NoRkaLx07T+lQt6nwIHLOASk3/Uqwg3JdUxgUMZG9Ss+zCiABukMZe06f5wCbtCBh5OUT2l+u9B2CDPJV1JvWGDAt4F17Wbcukk3a9WHfvy8nInqrzT2Ttok9XB7qmoRi+55JJL85GNi2qE7T2Eu2lJNamphEwcpxFQH6BFuM4iCCltprRB0B2dG+HB5ZarEZw1MSJ7zojKjPERKdHfm3foDdcndVptRB+kiEyqiqjB48XEjBfb1ZjyHc+RXp8NrYhsEG2MJqOYC9QRxgZyO6+xrUXiaigxZolUUhJxIpJ2SSbaJd4elzY1pHG3Lu7ePpRMxLWO4+61bB3UtS4R/V2kn1FdillScSlRDozviMvkdJsyXGnOvnqMPlES0fNEdSlX73C2CuqR0iLVpSVqFEu1HjXSUA+Ha+NBmFBT1SdjSP22KnfXbOtQQ5iWTepsYQhDFHBGsFIdqzkTo7L3rIAzOFfrt6vB131nTojIROXQZI0gyISk0kH0AZ883Hn0z9qqxpI0XkwfPBw9Lnmk84j7Dl88Z9zznTGKSeVDe1urizT5zQsQEsqbhPImwTb93uZ5o5/s73ijPOhwPFATqr8j+glvYrp43tSk4zJd2iWmvx2/dF2HHg/fYmkVW+XNjFS7HC6tMq6kWHlT4hyxWCzWaQSLNLrgeuFwpUbRFWUM+eobj7Apq7Z2OHuEKLosR2Y7gEfwY74693uoPZqkfAF0bMMJmKt2anyGR2TJyIQ4LoYKQWjhK1Ew9q4kpk6pLpQ92hC2QY47yqOE2pm01llS6xjOwKWkLnz3NgheYZ9SGRsEj7wN8lyCRyzwiGWi2qApHe1qb7BRyj94pMcVKY9ien5s0Nx0qxxV1Nppg1y2Q7kEjwIuFUmlPtP+pQ/dYVhFqhCNTiCrtqVlm0YGGLYw8bhKfYZkgkahGMKJSlKGHXH5kPLZVSrCajz3nRXV7dyMncaVru60h9ErGFKHwb2C7Ijx7AlFztscTZ6iN4ws3kv0k6M7b1GX1rZ2NYQYQzWCuo8jvd48UjDuP72PVAX3k8/wAhxLMj/8Ohy7puYWNUop9fzKncEjguATLxBjWKkkrtEoo4Joo1yjDechxtRgt2mkmpaFM6c6UvcUXCc82qL8QVDr1KWlDctfE6C4MuXRJI1KZ6twwieXqdD1cRXNx5cFkerB80nJZXikf2Cz8mhjfYdrk6VJIjvi8MaVrMlMdfT4PtJ55MU0EM6daTvXfECUobxpU84gXjhlGMoOJQmRgOOclkGdcKvc99AC3Hf/IwPu987p9fldJA0tbRqNRJQnVVKmEWmVimS18qXS8YbIolxKlEtuMn296YGopqVxB5Fq799SwzURZW5pCNrR6zUkwm6EL5XiKkrEOWOz1d7UqN3wGS/a6un/QRlHLoy5bAaAM2yjsyXOG0P+snnks2izlJtwCds00sW1KxtEtNqinGrFiVc+sS2pXNrFBumNJ8Xr+eI+Qwtw3/2PDLhvWiUObNtS3yAdsdIgI1aiIlpSKlVqh6org6Ynn/FgG1zCwYc3vYlUh4WoYrAQu7Uana5lLFdWNMDVEUGOU2JC3hnjNDLVpy582flE1YO/pUUJjKHFKEJm1oUBmStLimTupKCdbDSQGYQJ7b1Dn8rDQPqFdRCafahLFn98X7G9sVkFSqPSikoV04z3p6JKe0UJpFZjyNtFyivKlMwYx1K3X5vyqCyCqAZtqt2BK9TLdp3QGBpDhiM7MgUYPe+UTa0tcmm3cPH5RNUDntE+5s6hRjFXOhkeYUThII5aqQr4SOURde+5gKiywBuMYTZvvDMW5lt/Qd2zbG9skbZ0RCqra5zRo/20TMXULfo9MITFeu8DUcVq9EVUPY+2qd1bpbaCdtPXiaku8AinbI7aCtpCOWW4+Hyi6gGPaOOnB/omjWhzdXSiaYFmLJq3Jqlwa8C9yzlGGjyXvA2CM55D8AlescAxtvv9/bH9AXWPOG/cVq+iWubehkXfDWwQ9mcnl9Q503WI6s6sR5FMUVEtGQmiyn1ifCkih5GCiLkMVIUKHV7bLI0i8wldd6LqwX4IOO2tkBkjmn1OHhgEfD6dB2pIw2Q2jGBQ2SwQmsVHHeEFkrPei6oncn8IXdfQpPdbRVUjDMSySCsvGiFSjQXCqtGFS/tmPmPFJY7IiGppUaqzTbUrUH84Sc5hqktpRBlwKwwMFNyhTqepmObroLaLqM6j/nPzCEOLUaTNn5QdnSmyz4lgT6iKuM5ME9U4Fo9AHnneeGMY5g0GsJM3SeWN3pRC8cbD2yZEtSVVJFVVNVLs+BJEGWQ2eFUggurawJRbcEyP1PP3TlThEcNc6ITkm53CfwJHq52VGo0i5yqPptcGadpcxXYnqh44fgz1W7ElGKrlUstZtw37M1kFHB7RqQkuj0R4LuWyQZ5LrMu2QYXgEZVHMeu3bJeO4jKpUCefNC+L45JzzBBZ0r/KI5oSEFSCADoqaf2NCFGlTZMB0YhbtrDxXEAmolKiU0RO/76c4GbxADyjZWHgdp8edQSEfPmeI9o66HBAW8lW/RudNxq6Bg5DXBdNjcpu00Z+xwFPThYIiyfovUVInC2oYePYH2zd0ajik5SKqiqXTqFCMHxEEwgrHUsCcuunM4y8wDoiLa3NKqpJWTSze1GllzdDZLbTCSQHjxDQmePU0ZpU5NpQczllwImzGkOGSdC5ad+ZMZk5MROFZPYJg9uDEYS/q7alpF6NYq4UYaka3j2mR1ybWz4+DleEeQMn4Iw3fJ4znjcsfr9CAvu0tb5JmvXeViKqypNiFVCiCc+dmHosRKlFWlncYtK/6XSqV6JKluNJrXsyEdn2KHDuRR37qLNHfM9XHMfChafVySfrdvC8mGtPzWdD4BH7bagn1RwM+csepsS5aLI4aK6WpY5+Pg4PZ4S55PnieZTNpULaIA8i1bWbt0k6Vi5VOPnYn4wNctGp49Guzhk8iujn5PIRIqp07Fi8JOGiVQ+uxHv4u6shqs20U+QCt1vvv3sIXlkf9NAkEiXdRqQ6T4WVTiNd3QvabenEsnyTerW0b4SMIofRM/iQ+VF3TSMZnpx8esJ6YWXxJPeEZr9CEHprfYPUOVGt1noM2iec96cL6ZWgfZW2CyU36WH9zWkR1TJJuvRvd8CAPfxa0jlWHlCaOqNH7m7Kgxp1yroyaogh7a9LNwaThLCODAlCSIc4DFo+Q8Zdiuu5125Pu/GH2U0LHEc5+86me35m5QiC5wKL50gu7rAd7vhjCgU4s2V7o+tJXKk8cpGEGj1vFIOoInDUAlsWpIx7K6o4R48u078nZPI4BKeI4XeLpnbdJMSfzIgFnHVGIrix9LqeJqVF6pjnarYKg+Pp9EZKmH4lberYhXnEYQfODbJw+QKM4Q7Po1w2yHPJb/McKhSXENU1G7dJKlYqlZXVypvA/pBBC3gUcCpatCuXRrSochWkSdwwl9qAgPnAfW5qE1m5JSVr6vS8+sCFAfFp7Kc9gl6cvkNTLlBlraQP60jDMOVhUInsPlpEFYRJ6onL4onsDaPfXghs3o6oJpwx9JEqfGMJ2lcxEAG53W9dD+9aWpqktI+iSj1PqgrGkE5VHuUTU8CfifFbrvXu22HDoKwJWta8SVHXaaSr7IfjpPJo9TZ6i2qUkrme0SCq/hNe8OmF1HPIL37fQgMeNSZV1CqqnAGEN15IIxhB5Y5P+3p71l9RhTdT1Smj7ugUmY9H/MX82dsa1X64NtIg8xUGx9KTHE76qDXf5cB/OEkTFf1M/FAudh8Nouo/PWdy8Yil0FxSqZNVG7aoqNKmSqSKk59lgzKRKY6/5xL1NGJFFaLRHjpXSZzv+rnNCOCG+qDtI1c7bBhEuZCZB4Ou7l2JI0aQbvMIK+ASRpOoAio9m9jhz/BSCGyu2yHbNFKtUlHFC1SKuhvryIoR1E9HZF38Oq6lpblZSpyoTs6UlB/ZokpdYXxwpvLQSP8+cQLIJOf07qRnb1d/sm/XwkmbUAmv8pUctJM9tTLphlRQJn/mSBZV4PnguZGPN36fQmNTnYqq1i+9fzF+GD344niDEXQ2zH8G6K+o0nv7wDlRmVTjWJsT2B7aYekTQm9e2lC7+vNLlUfYlHmTGO6XX6gBto2mCPhNkVzDSBdVEOZJNn9y8alQQFRXrldRLQ5ENciYwZmuucRHb0R1WFUNF48I5rt0PLb16rk9tSrlppjDm+tKUAEeIz34MHK8OYLOAPmOweB1RfLRAIgSXoL0R5CCZXFtm5k2hkIsrv2rWMvOfI+xZNotiFxdt3VvJJ3i7CRzf8C443yl4DwxxdxTarCWbEw5ce3u+UUomUgEHr28PpPay8cj5ZD7U0YRfJ10x5tCcie8UK47F22n+unOn+FMcG2F4U0YFOciyszvMKh6Zm2joxrCx+vdaIfvjkdk1EjvcgyTiiCcY4lHIMylcDOQ59OAccjZHvgacIl2eW9/dnIJAegfl4ahhOT+Y9SBcYaQCc23NnQvpmGwK0aR3qHPrg4GcPfi8F4BT+Xpp5+WrVu3uu8ezELz3HPPSUNDQ2bNwGDDhg3y8MMPy0MPPeQ+n3rqKVm7du0u1xImtV+yyR1ePvrRj8odd9zhysi1vbuFdtIY6RW3kLZTD1GtlW9b9dewk8x9J3R3gDevbU7JS+uD3pbwqqfgDpJVIZNBT3PaTgcKjN179tln3WcY27ZtczyiY8dAYunSpfLII4908ohzbtmyxW3z9cXSFW/CCx1Q/t//+39y55139viY7IUUXbBkeOO4038j2BfgrL+4Lu3m/SVSzSeMucCucOfVTSlXBlmSgQL8oe6wPx5Eg9inJ554IrNmYEBa95VXXnEc8jx6/vnnZfv27Zk9cnPJ1292/bNs3rxZLrzwQlm5cmXO7V0t9OkIvmN/sEtwKDgfnwGXgmvqD4ahqOYGfydpj71nRWV8FaF6ZkMPQUpwxvgi2SczheFAqSrCc8kllziDBHk9Nm7cKF/60pec6A0k/v3vfzvj9cMf/lD+8z//013LueeeKz/96U9dRwCPbDJn/w4vEJmxZNnH9XTR0oNemRDXLy7l4g3izvMPNDgD8z7vOS3qBuv3hkfsSvoOHu4zO5jCsDfGtDfgnn/xi1/sFDKPF198Ub7+9a+7cX0Dicsvv1y+8pWvyH/8x384HvH9nHPOkVtuucVxPFy/fglzJnsbx2DIue7sbV0tO8uDP3794PMmG0Swe0yPyu7KI6Yk7C2PyotFFk6Jyp7TI252uIHiUX19vePR+vXrM2sCUX388cfl85//fGbNwABH6mc/+5mze3DI8+j00093Ios98vUXXsI82ln/wTaO4dmg7PAxPVooy/HIlxmUG3Bp59JfjAhRJc1ClIlHSA+6Q+cHZKbNo7t7APnptHLAnKguwXixddvSsnxjxy69/AoFjAdjrnynHw9+++7igG38xpPMFXWwnx+75cWZY3wvOY5hW/gcgDJnzpwpv//97+Wqq66Sq6++Wv7nf/5HrrvuOkdkf37KQCgphzKySUU5bPdtHCCb6D1ZAmPojWDuZbBA6m3lZsYmi8yepDxawNCrwCh2dxU4ZZNri+SgeTHZWx2zCjWKa+hIorwcCHDfqRtfXx78Zn2YE/xGrPjMBvv5bdk8oo5Z4FE22P+oo45yPPrjH/8o11xzjXz605+WX/3qVy5aBtQd10P5lOPXsVD3gPOEeRre3pPF76//h74Hy1CAv4JhVyuUR/yaPyUihy2IuXH09BDvlkfqlDGt6iF6DKMb4NWqzWnZVD8wPKJ+qJtcPMK+hMFv6pI6C8PzJZtjnnuU5ceYhuGPO+WUUxyHWLBHn/jEJ+S73/1uZ4Dh98PeUEZ2Pfvz+PL5zfpcfOlq4Rj9B0ukpex6jkJiRIgqRpD3p16xOC7PrU6pt1EkuykhEVca/CFm9m3Bc+RNEUSmzIxDl3h69d7yZEJ+dGu7SyMPhKj2BBDo1VdfdeT6yEc+Ih/84AddWsyTubGxUX7+85/Lhz70IZd6xaBBeEj1/e9/X373u9/Jhz/8YfnJT37SeUwYtBcwY0hVVZXU1tbK7rvvLnvssYdLS2NYiRi+/OUvd5Z/ww03dEailIcXy7aPfexj8r3vfa9zW19QWLr2D7yo/p/Px+Xah+Ly2sa0MHCf8aOHqFDSqQkeZQMeMUZ6v1nKo7kx19mNjiPXP5yQH9zS7soZKmDMyIh88pOflIsvvlg+/vGPuxQbdYzhIeX37W9/29UxfPnHP/7heER9wqMrr7zSrScqzQXaoeBRdXW1jB8/Xg4++GDHQaIezkGzAkILT+DxXXfd1WmoMYKLFy925bONiMWnIPtuxIYBm1T7mtQH+ftTCbn2wYTr5Fapdma/2coP5dFUtTO5JmfAuZ+ozj3jTHlRA5yit/Af70/I/94Vd3OdDxWoyxtvvNHxBB599rOfdfaJ9Sxk2ahn6pG6fvTRR916eMTvm2++udOOsD4b8Ahb5Hl04oknOg7AIzjMueAwNgcO33PPPZ3lINZXXHFFJ49uuummnE5gT9DJngGm0YgQVbUPwnRwr6lHd/2jCfnr4wmNONJuADYT6kNmphWkh6Y6JI7k9LZEdBmojZP2+GtJ+dlt7XLNQwnXJpbIniVgEEG7KikZhI5U7bHHHis//vGPZceOHc5o/eY3v5F169Y5opFy+/Of/+yIjODR1nX99dfLW9/6VjnttNOcB9YVICfGDK9wxowZTrAR1IkTJ8rnPvc5ec973uOi2Ntvv90RnGsjvXjooYfKpz71KVm4cKFLQWKkRwPoTPLi+rRcrcJ629MJ9+Ya0sD7zY44Y8cMWhhFbitDshZNjbiZlaZrdIFTtvgl5dHt7XLjE0k3E1hyCHlEXZLW32uvvRyPqLNvfetbLpKkLuEU0QVG8rzzznOOGu20CN6SJUscj+DQG97whkyJ+QH3fD+BCRMmuAwLPJo/f77j0bve9S4XfdB+x74Yyh/96EdyzDHHyGc+8xmXPdm0aVOmtJENHgXGxj+tDv5VD8TlX88nnUDSrLS/ius+6oAhoPAIMUVA95welYOUR1OVXw0tafnXswn53k1tcpt++on3hwLU58svvyy/+MUv5Mwzz3R1SbvjL3/5Syde1Pmll14q++yzj7NZJ5xwgkvhwjFs1TPPPOMyYqR0DzvssG4dJniJLYKDiCyOGY77fvvt5/h06qmnOt7Q3ovtIrtGhPvud7/biSqp31zCPZzQtUUeJvBmi8hye0uHPKQC+aeH4/Lvl1KyQ6MGDCGe4l4qsMzby3cikDIV3VUqoNc8kJBfqzf40DLdvwc9hgcakBGhmzNnjhOt973vfc7wQEgMJVErJEJ0DzjgAGeYSOEC2pXOOOMMOfvss+XAAw90D0A2EMG//OUvcu2117poBEM7adIkefOb3+wa+JctWyYXXHCBizze8pa3yDvf+U4nrHietMkS6eI1YqTPOussJ8aFTpEMJehkwltl7n0lKdepk/bgkuCF42QzMIq0leGU0WTAdwzjy2tT8vt/x+UyXZ5c1bMewwMNeARf5s2b57hCXWH46D2Jg4ZXj4e/YMECV9dTp0510SPH4YyxP2KIQcsFhBHhhUekgRFwDOe4ceOcOGPgyLbAQ4whZeEQwqM77rxDZs2a5drzDznkEHnve98rs2fPzpQ8OoAQrq/vkDtfSMifH1FerEgJ01ziyOOg7TYt4BHfSRNjyJ5emZLL7k7I5fclZMlGegzvtG9DBbjC842DtPfee8sXvvAFV5decLEZb3/722Xu3Lly0kknOe7AI8SNfeAc2xctWvQ6O8F2+gH86U9/cjwiK4I9wu5Q3oMPPuj2wR7tv//+zsk74ogjHO8o/w9/+IOzdwQRNEcQScPv4YwRIaphQECG1qzZ3iG3PJOQa1RceW8hBo7JrUnTkaKjZ+e/nkvJ9//WLn8jIlFvcLDSvd0JEEbpk5/6pBMyCEn6BDKTqiVSJLrAgJFygeCk9FiPl0fZNTU1mZJyA0ML6e+//37X+w5DiChzXiJdPEQWyoKgPEw+Lcj+++67r5ukHPihDKMN8IU21mXqdN30JEYxIUs3pNRJCWa/odmAeVZ5neCtTyblJ7drRPJiUrYwFeIQOsoYIA94QCYDY0VnkLvvvttFraTaiESJBogy4BERCCJIhIGxok45vqtMB2m/Bx54wPGIiAJhpOMbc6TSRABnKyoqHI9w7o477ji3Hw7jls1bXDaEN8gAtpMGHG2gNpgF6RUVSBy0vz2RcJM2MJMb05vS/k4mZO3WtGsy+OEt7XLfkuSwcO6pN5aDDjpI3vjGNzqxI9uACOJo8eyvWLHCOelf/epXXeaKjAiZCFK3novwKJ+NYJ81a9Y4DmGT4BQpXsrCxlA+KWGaGQA8wQFEyOHpSy+95ETWc2ck2KMRJ6phIK5LNqTljw/E5a+PJVxbl3JElq5Py3//My6/vbfdzbbkZyQZDEBSDAnCGDaAvrMGBgnivPnENzuvjZQGBop21fBwm6997WuuBy+9L//3f//XpUC6S/V6EJmQviFqIJXygQ98wBk4L6IYW59C4Zq4Nq6J8jHI/lrHAvgzeUPI8+qYkcq77amEmx4OPL0iLT/6e5tc9VDczbY0mCk66oP6oq7CwPnx21hI31PPePpkGc4//3wnnNQfdU5q7Qc/+IHjEtEmKbaeGiVE0vPoO9/5jrztbW9zzhiAx9k8wZkLJiUPxpXiBIa3j2ZO8afRtPCoRqtXLo7L3S8k3XhoHLD7X1Kn7LZ2uV5tFPP6DqaYUg/ZPOLZJ33Psw547nHusTOkd31942SDKVOmOB55e0Qfj/e///09skfsc/LJJ7uyWXDK+O1FFC4i0t4eAZwyro3rZr8wz0YCh0a0qAJucWO7yFOrU7JJDZ8+xxq5Jt1vUitDASK9++67zwkrhICcdCiZPHmyM3R4eRdddJEjD/vSmQSSk1LzUSRjudiXtC0E8xFBf7Hnnns6w4z3ybVxjYxlJUrmPES1XCuGme2khsJiP1qBodveIi61S5aDttInlydlyabM20oy+w0WqA8MIt49/MEo8slvOIF40Z5FFIpRIgWLYeQ7bVakgxE5olP2Z4FDGLH+evqIOqk42r1oJ/XXRsR89NFHu/OQCiRCYUiHfwbg+2gHIrq5MZhMf0dLWuKJDlm8hElGBtcp80CUiARp66YOqAtsDePOqUNEimYCxI7IkYgVh/6FF15wNojmKTjFNm+/vNj11MnPB3gIT4leORc8wh6RHaENl/Jx7GjKgjvYLd+WO5wx4kXVA6OIE4Px4/tQpVYgHO2RtEfRQeSyyy5zqRNSvRdeeKFLlfjFbyd1x2/aFHgA2I/0L1EmHQjoWUcKmLJ9RJlPYNkOWfNth8S0rWKA/+///s+lfOgExSeGGuNMWo8ImuETpGp8G9xYQCePdMFADhGNHB+of9rE6RhCXdHuTl3Rcxcjt9tuuzkPHx6xneiCOqTtEh6xP9wj2vyv//ovF8ViLAH12VWdwqF8PINjcIR2MbhJxoUIePXq1S6C4doYRsG10OZK0wOfCPxY4RFi5e3RUPIIB506gUdwgSiUpgA6QmKnAH0ncNCwCdQlmQ2cawQUe4D4kkljGxyjzl3nRf3P8yQXvL1iyQciYxwwehH7a8SR59ool+ADztJ5kucB7iO+w5lHUfVQLs1ngCFCYyYV1hNApFSSnEdCJo4L0kRdgbQsc2b6yae5T0ykTxtE+JLcnLzr0rJ2e/5rYXrDQ+ZFZWJ1RPdNyTOr03mFlY4nB8+Nyp4zg04oHmQg6MBSp5EK4BIYC8u4svB+XYF7SdslqTKMCp46Q1owKpAXMmB0aPCHtHV1dW47A7HxBNmOl0YHJbw2HgpSfEceeWRQdu04125G5JGr3ki90UZKCjgXmSmf3sb0xuTcdBbggeEYQHSEseQaEVPOTUcpzkmvz3xcyYfm1jZpSaSlpLSsxw8CPErogxOVtEyoCdJEXYFIkonHfSRAXVFn9N4NgzZUpoera85t5NibtrAjFjJ2tUieWpGWpRqp5uMRvTt5V+bCabv+XexPurgxMwyQW0bP0CnK7Z7ePu4VHYvgCWlUPHU6/NDGPm3aNLedZobjjz/e1QuGCKcMcYMbbKdtikwI21jnO4OwjWPgHZ+5QLRJncOTXPWGMSWqmT59ujOwGEaMMtcMR4hk4BnXiPDDI6IOnLq+8KippU3a1U7wurdg8ofuAY/iGplVlmp9lpV2e07mIqdHN2IISpULdF5jko8wGFLz5MrgFXH5wNu16DVOGQ8uDV76kQ/YmCMWRN3bkMJw07Iyn3Am48ZVMG8wY+17evv4m6lnMgiAaJXnGR75uqI+6AiE7SArxXd6i2N7sGEcS6czegJ7AaTe4QU2DI7Bl1wg40J2jP1z3X/sDOVj+8h6wDmyLziF7M8nQ3CwRZyLTp1wGB759vqeAj5sb2iWjihTIcKjnt1EdqvUemTq055gWE2ojzAyQQMvI/fX765Bif7Xx5PygoplPjDw+sPHl8juM6Ly18ficsXiRN62VIzh6QcWy/uOK96FoAk1uq9sSMlrakgBq/szoT6V6JHrHvd0e3gb67ojQ0/38eju3D0pLx82bauXrc0JqayudYa4J4BHzU2N/ZpQ/5D5MfdWGQ94xFhAxjrjnIX+/E6wN3z49FtKXGe3y+9JyC3PJjqdvmzw5qPzjy6Rdx9Z7Pjngbg/tSLpeoZyHrjcnwn1e1pXIHt7d8fmQ0/rvDfXBnpzDWFs2FovO9ROVLi0Y88exv5OqF+NMKrzzVuKPNhGP46rH4w7BzwfZo8vkg+qPaKM/7wl7kYs5MMEdbguOLZE3rJ/TEpCPKKN9onlO6dV5Sr6M6F+b+oqe3u+bazv6r7647q79/25tp4Cu7Js7WY3oT5vO8rlLOYCpxuxE+qHwS3ESDLHKoKK2BUKPBh3vJCUK++nx+fAdWSi8v2SCz3dHka+fcPo6T65yvcIb8u3z0gAz2JLuxrLV5Ny7UOJTqErBDQAl78/lZSr7o/Lmq3Bu3wHAr4u8tVDV9u72tYVerp/d+WHt+fbZyQAp6yhpUMWv5KSGx9LdGazCoF6LZchOTc8wrjpgevI1F09dLU937Zc+4aR65hc8Pvl27e77cMJw1JUiQwwUldpVMEg/eWbU+69hrPHR9zcq/1BTVlRMMVhici/XkjId29qlxsejrs32aQGis2GIQEzcfHy+d/fG5fr1BCur087Dk2v7foVgN2BaHOceq57TddCijrckJxv/KVdbtNPxk13DJC4GgYfWAR6g7+4JiW/uSeudR13gspMblPUJvW0WSgX4BFTqC6aEnHDcq59NC7fvrFN7nsx6aZkzdlGYRj2GFZtqlxGcazIpTyYaWR1Xdq9w/It+8TktIOK5YhFUZlcFVHPLu3aNcIRR1dtqvx1pOcOmRuVC99QImcdpWUtjKlhLXIvp2ZmlJfXBm8sKVWx7WwL06W3baqGXTEUbarwiOXhpSm5/dmkbGzocHOznnpAsZxyQMxNN4goMpEIxszzKOBJ/jZVymTqy2OUhxcdXyLvObJYDpjNO2LF9e58WjnHcC5m9krqMW2+LUx36G2bqmFXDEWbakztA/057n05KXe/lHQR5YLJUTn9wJictH9MDpqj5ZYUybamtGuvzxzm0FWbKpfB9rfsXSwXvrFY3n5IsRsXrZR3fHtsGe907nABhOORXoM7TpfetqkadgI+DEab6rASVUTtpXVqnFYlneAdvkAJrGLKVIS0TdBhAIFjtqSYXjPvtMQognyiyvr56lW+9/BiFdMSWaTHVqhQ0o6x50wtS6PWBvU8X1NxfUkNIi+tpaMU4F8T1f5hKESVNCyv+OOduxi9N+xZ7ASVKQf5Xal1SqcQfmNA4RHGE+QTVZyy3TWiOFc59PbDimWefi/TsniBNW9Ooqy6xg55RfdnfmoyIuVaBhzi8TJR7R+GQlQZkufflTq+IiJv2isQ07mTI65usQ3M4MZLGegXgqPvm5LyiWqZCuUBypf3H1ciJx8UzDkN15gzeF8V6VlqazY3BLZomXIJ3lAG4F8T1b5jTIoqwIARnZ6s5D1yUUxJlZkwXy+RBXGDzAtVDGcqAZPqIZKOYT2dCryoPr82mNP15P2K5fxjS+QwLatGyYhd56+lLMg6RUnKNGKck210SsCwAv41Ue0fhkJUHWP1H/hBhzSMG1ygDj2PcLYwTojhdBU7ph1kwZnzovr0ysCw0WnpDC3nPOXR/sqxKi2L5wt+8Im4Yhz3nR1xETCOGccwYT/7cD4T1f5hKESVD47gFW1kOLATru7hEdv0H2wTr6Lca0ZEJqqt4qXjLNgN7BE25iEVVXqD0wHzzMNL5KyjS5xDjzA7HulCmQQNfppVXg1XrMdOrNIAQs8BOKeJat8xWKLaM3YOErh4PDzm8o3rAwTJiToyHO8E+xE57D0rImceUSzv0chh/mR66AZGjKEURy2MyedOKlVDWOzeaFMa6lXnwcOTSumDp+eqVaPHq5h8lOrRs9toGFJkVRLcR8QQttZEh3sJNPPeZ/OI/TB+GMv3q2CeptHsbDV88MtxsULk2D1i8vlTS10PX6bBJLWbdTrHI17QgJPoIlc1mLzUIXs/w/AGdR4GowSoz3HKAzJi9MbN1RnN8+gwdcbOO7rYNVfhqCGUbJtQJXKKBglfUB6dcUixCmORE8rX8UiXuPIo2aGO/MSIm+ZwF7tlhBoRGNIhNUQYT65ICl3GfZTh4Yiqhom3g8wcH6Ra8kWLRLpbGjo0uggEddOOtPMqJqpRzXcMBpA2krUaKdOVnqnqvIcKuCUMmcCQkn7mATP0HoMxpIYI86kVKVef2UYPHuGozdBIcqYaM6KBXAEzVU/Wg9RbbQVjEzVqUW4QhRC15uJRIKbi+LtWIxw6u+GgZfMIB3DR1KhGPBap9hWDMaSGmbSeWplykaZvR/fg+SdCpG1+am2GRzmKo+5pXw3eWqPRZqxIVm9JO3HOHn/vwTF0qtvSmHYZl616rE8je3AcLzPffw7nV8E2HvUagzWkZkhFlfLpzPHqprRsVINEL7tsMkMehHLh1IhLn9F43x9CYXR5hdfaug5ZuSXlHoDwOSmae42Iz1VvEVHN5VUaeobBEFXqD0PI+GKELbtOAaIIj2iPn1AVRJx95RFF6yVKs4r5yi1wKeBRGBTN3Bucc8HkiHMO+9PjeKxjMEQVzuCYLVmfVoF9vYME4BGvdaPZINw01RdQNsEEPX15HeUG5S6OXfiUFB00VURk0ZSgCSFfoGDoGmNCVD0wUHVKZl7TxrAHl/LNIjPEIqVH77vJ6vXhOfaGzPwtTO6AJ7hqK7OhBOvCwMiSbpk7KegwUFXW9wfGEGAwRNUD7367Ro3LNqfcwPxcPMII0n7Oq7jorIaB6i2PcP5Wb+2QNdtTroki+xzwiKzJPOURWRaiGuNR/zAYouqBndii0SJD+eivQZ2H65hSipXKDPNboDwigqXOe1rHFMWwKzJ1cJV3+rbo9+xz0HRMto42XVLGBBTGo75jTIkqgE+OzA1pWbkVT5FJzYP1HlylI7N6a4wT4+W/RANd/akQldQKKZUVGpm6crP+JP58CMu4M1duxtga+o/BFFUQ1HeHe9UfneCYbSk7JRzUNx3Qity7L0kP83x1xyN6CG+Cn+r88equXOWS6mWqTXqI0gPYeFQYDKaoAuqb9nimCaTnLtHk6+pbFxwmZjiCS2QlurPTlEuvYl7+wXA+JiahvT8M75TNGBeVOZOKXPt8X7Mqhp0Yc6IaBh4c3hvpPDoHZEeUXC296ogC8OLKlYDZpOMQvRxn/F7dmHJtrtntFACjN6EyGF5BG6yl6AqLwRZVD+q/NdObc/lm3jSTg0fKmUo1ivTcJUVLliL7UfA8gj8MrajT5+F1TpkuPJ84ZUFa0MS00BhsUfVABGmzX62O/sqt2JDXz8hFsTQXkZmgh2+uiJJDeIPWJni0KRU4eznKIQPHfMPhCNhQGIxpUQXeoyO6XFfX4cQ1G1w2XhwGEU+RoQ38JRzL2EMilTW65GobYT9ISxd2hl4w52b3t8zQWwyVqHp4LtBmxRzS2W2fAMPFOGjX9kmaTR02AP9pY6NZgiERZDyyWcixZEzmk6JjpiYMamaboXAYKlH1IErlXag4aPT/yOeg41AxLp5sGlwAOGU0R5Dh4NjsiBdwLMNnmCN6ivLIOkYWHmNeVD2ICvDq8BQhZC6j6MlMxyJStxvrg96YpGxyRSdMADB7IpEu7abmDQ4khlpUPVx7q/JohRrFrcppBDIMKEC7Pe2sTOxABEv7+zrlEim6bKcMzjCJBJzDoYNT/bDZhm4w1KIKoABNVL4pKdeoBc5AJ7hJ1RHnsJP9wCnb2JB2E0Rk8wjbRfMDHSJxyhgjbzwaGJiohgAR8e5IneDtYRT1VLuAPwGCMlaVNjW2Z/HXpXZJrdBJhUH6dAQw/g4shouoAnhEOz2d4Wi3JwrNx6OYqqbjURaJ4EtZSdBuyhAZhNWcsoHHcBBVD3iEU+Y6PW5Lu0xItlhyqmLlEXabfXPxiMkf6BA5d1IwbMt4NLAYLFHtWalDDP4ooghSc7yG7cA5MdcpIPyMeIPJcBkEOMxhjCQTVx++MJgVZTxtFbrOODy24Ayd6jpTFDIF5t4zolJZGqz38DzK1QYLB+mFedj8mOwzK2pZjjEK+EIESqqWOcR3Z5IG5VU2j2h2on9INo9w7uHgUYuisseMYKIQ49HowYgQVQ+IR+9KOgMcvjDq3jbjZq7JQ0jElHTevmoAD1Ujygw7/RlXZhgdwOGk/Z2MxaEqkAvVODIna1c8YpavA2arQzc35iaEMB4ZcMzppbub2iEcdnoBY5/y8cJ3QjpoblT2Vy4RGPR2aKBh+EOrdOQBI0fHEqbxYl7X2RN27bmJ+BJFMIvNQbqdto18M6AYxiagAgaNtvg9NGI9dEHwUnPawzzgS3WZyF66/QAmO1eeYTSNRwYPqICDxYQQe89UsZwTk8lZowiwV/Bs39kx5VEwEYib7tJ4NCoxIkUVdJJZCcwE1Hh+DGlAPBl7eKAaQWbP8ROpGwy5gGELOpZoJKqcIa2LgSQDQnoPsWV4g0v1Go8MeQCPcLhwzHDkccQQUnjE+1IPmhdzbafm3I9+jHgzAT8xivTkxQs8jLaymRFnJE1MDT1FYBSDgfwYxUPnR2XPGcHEEMYjQ0+BYNITfJ46ZGTR4NHu06PKI8twjBWMGnOBUcQrJMqwbumGviJI+Ra5VwC6V7cZjwx9AI4YWTJ4RAc3w9iB+eAGg8FgMBQIJqoGg8FgMBQIJqoGg8FgMBQIQzajEjNPtLS2uWMMIw9wprKi3H12hYGeUQketba1SSrXhKqGYY9IpEgqyrvn0WDMqNTUrLaLWRsMIw7UbVVlReZXbgzWjEpDJqrs+9qKVbJu/abMGsNIQqUS+KD995biboRyoEU1rSR+/sVXpG77jsya0YCxY9jLSkvlsIP375YbgyGqjzzxjLSqoz+W7v/oQJFMmTxR9t5jUZd1POpFlZM3NDRJSolvGHmIFEWkpqZ7Yg5GpNrY2CRJ3qtlGHGAP7U13QveYIjqdnXMOkxQRySo2/HjajO/cmPUiyrQ8/Ov+24YeejOSIHBmFAfIhtGKno2bGkwRNV4NLLRXf2OCVE1jH4Mp7fUGEYuhtNbagwjE4Mlqj0r1WAwGAwGQ7cwUTUYDAaDoUAwUTUYDAaDoUAwUTUYDAaDoUAwUTUYDAaDoUAwUTUYDAaDoUAwUTUYDAaDoUAwUTUYDAaDoUAwUTUYDAaDoUAwUTUYDAaDoUAY9aKaSqVk8+bN8tJLL8lrr70m9fX1QzLHJ+fcsmWLWwwjD8lkUjZu3CivvPKKrFixQnbsGLq34qxfv14aGhpsrtoRiHg8LmvWrJEXXnhBVq1aJS0tLZktgwum7PM8MhQW0UsuueTSfHNi8sg2xnv+4PKQp5IJVbKETBxXnVk7dGhvb5d//OMf8s9//tMJ66uvvir333+/jBs3TiZPntzjuR/zYfv27fLEE0/I1KlTu53XlnvDuXmQ9txzz8za0Y/m1jZpSaSlpLSsx/ebe5VQ4xOVtEyoqcysHTq0tbXJX//6V7n33nudsL788svyyCOPyPTp02XChAmZvfoOuPnUU0/JtGnTejQ/8nXXXeecxdmzZ4+Z+WybWtqkPSVSXFKif3PPeRRXG1BZGpWKstIhvVdcS3Nzs1x++eXyzDPPOKfsySefdMu8efOkurp/9hKRxLbAzZkzZ3b7t8Kfv//9726/GTNmDOm9GSxQB9sbmqUjGpPiYnjUs7+Z3SqLiyQa6dn+o1ZUIc2LL74oDz30kFxwwQVy1FFHycEHHyw1NTVy5513ymGHHaY3ttjtCyGJRPjkXvj74f4eLYffbPffWdgXY3j33XfLfvvtJyXuYQ+OYxseKfD7g1mzZsnChQvdedknu2xEx+8LwtcV3sZvFn99fhvfc+0/lBjposq13HPPPbJ69Wo555xzHI8OOuggx6NbbrlF9t9/fyktLXX7ct8TiYQ7hnufXV/A11G4zohcEOwDDzzQcYP1lMEx7Mv38L3bbbfdZM6cOU6A2YftwNd9NLrrhPOs47r49OflGH8OPrkOfxzlsL//G1iGGqNBVG+44QZ3j8877zzHIRaixWXLlskee+zR6VBRJ95+hOudOgKUFX7OAdvIxj3//POOk5zH/73sm4tHixYtco4hnAuXnYvDgHVcly+HbXznOgBl+GtiPb89j8LnHSpwTSaq/QBR6m233Sa77767Iy/EgbQTJ0503hwCh2GEJESQ9913nzz33HOyadMmt419iUSvv/56d+y//vUvefzxx6Wurs5tX7JkiTO2/ObBoCwiYAzkrbfeKk8//bQjOB4o28Bjjz0ma9eulblz58q6devcfqR//v3vf7uIl2uB5BCQ63/44YfdtudfeN6lrb0HSpRE+sifgweS6yAqf/TRR50zAaGnTJky5GQe6aJKncAjxBQu4TzBh9raWpcG9lFGY2Ojq0/qmLrBiE2aNMnxCH7cfvvtbt1dd93lohPSbgjj4sWLXZ0RuRAFE62Wl5c7nnBe9qU8zjF+/HhX/5TFPaL8Bx980GVgMMyU9eyzz7p94bm/frjLfnCFayBLw/E4lzRHcNyGDRuckaUczkvkDI84J+UNNY9GsqhyHfDj5ptvlne/+93uuYRDcAnbsHz5cpe9Yl1TU5PbD3vA/ae+yIRx/4lwsVE4eNgr6pq/CR5Ql/Bk69atzrbstddebht2ivqHR3zHRnFOxI/1/njKw3ZhU7A7lAXH2R/AI+yL34Z94boo56abbnL8pQxsJhkUzyOuGXvreTRUdQCoh8EQ1aF3HwYIra2tznBhKMIGgajiwgsvdCkPiIGgrly50hlNFowLZGAbwkYbGiQ69NBDZZ999nHkxOAhcD6yOPLII52hwivjgYBUb3rTm5z4kjb07V9Etog23xFTyoaEHI+BRUAhL+fGONMGfMwxx8hhhx7mjByeKMfy4PDQQdRDDjnErSNqAscff7wz9EQ+CLGhf6A+qFdEKhwBInznn3++q3cM39/+9jf3yf0nI/LAAw84EaMuSfstXbrUGc8jjjjCGTwcMriAQ7Tvvvu6stmGwYMTCDRZjRNPPNGlmG+88UZ3HQDjhxHznIIrZWVljisYLowc1w0wdHD6DW94g+Mw4grvuFbEHp7g5HEdpLmJpuA2/MXYkiJEEAz9A84L9YXdCdsj7vW5557r+ARPsBeILfefDBj1x3MPj3CcESl4cPTRR7v6IVOGnTrggANk/vz5jj/wAGcOgUZssYHwEtsHr+AGYoj4+r4BOHTwCKE89thj3TpsI/uy4Axix974xjc6u4cgczzXhcgjtvCVc2F34OCCBQvceeEm5/UR7WjHqBVVjAYkxshkg0rGiEEWvEFIiKHDsJx88snOo/OCRBmnnXaa247R49ht27Y5D44HBKIinnh17HvSSSfJ4Ycf7rzRvffe250jn1Hi4eLhwUs97rjjnFGDuByDF0qEjdhi9HjAeIA4B/DCzXXxt/BAYuC5Fs7/lre8xe1n6B+8IcB5CoO6o+6594gjUSs8wbAgkjQvYKSoSwBvqBPqGucNXiJqGDEWz6PKykq3L2WRxqNO4R18RGx9/YeBE4VjBn/f+ta3Oi5gUDG2iDvnhasYOXjpRRVPHQOJEeW6uVaOg1vsf8IJJzgjGhYBQ+9BnfFsU8fZ9xLxQ0RZj/DiAFFf1BXPPw4agoV4ARxpbAXPPU4S9YjIkuHC8YM7iCu8pH7f9ra3OT5SnxyDLfKczAYCT5m+bPhG2XACMYcnlAPP+KRpzV8X1wSvsVUcw3PDPnAJm8jzMFYwap8WjCCkwrBkw1c60SzfiQTYF2Jj1CA6hskDL5LtrGcfjsll3Dgn24larr32WveZb19AmTwEwH9CeK4L8uMpXnPNNfKnP/3JCT1/iycxDyjHA64LUuPRsj8PAA8ZD6Chf6A+uc/+vntQpxg01uOxY9A8TzgGowiHfO9OjBzGE7APPMvHDbhAXd/41xsdj4he/PlygXLhAOX675RNFMv1ESVQDgtGGwNPef46uF5AlENEe8cdd8hf/vIXF13j1FVVVbnthr6B+0yd5qpv7BB1xEJ9URfh+43QYQv8cZQDl4AX43wRIHyEf2TPsAtEl5STb/+KiopOLvCd/bydhI80O1x99dVuwQHItpH+urCnOITwDu6SCUSI/fbRjlErqpCPisbghYkMeUnvEiVAILaFt0MifveWABxDWhbC4eWR0jnrrLM6DWlvwENIeaeccoprgznzzDNd54ZPfOITea+L1DQdsvAKSU//4Q9/cFGvoX+g/rjnGJCwMcLIID7UuTdsYR7hHLE+O8LtCUgTk84/8U0nunpnQSh7C64J5+td73qX49F73vMe1/TB71w8Yn9E9aKLLnKRLxHS73//e+NRAUCqFtvj0/YepHThEeLn7VGYZzhSfal7QPYEYaNO4RBRqxfNvoDj4RALHDn77LNzlgfnaba4+OKLXVqaNvurrroqr1M42jBqRZWKJeWAYcAgUqEseE009hPFIbwsCC9eJAupXciP194dED/gPU3auiiPlAfGmIcj29j2BBhCzs+1kCZkIaIIR6dhYODxREkRknIhhc2+RK6G/oF6JDVKKtfzCJ7QBkU7NzwjbYvnzv332+GYT+t2BwQOjsAh+IJQc144yicGl2294RE8IXXMcWEewU8MYbaoUjZi/uc//9kZcSJtnEKuhwjK0HdQF9x72hsRGJ5XeILjRSc1HHx4RGqe++15xEInNHjQnRhyDuqU4z1XSPMTNZJFgUect7e2CBCcwBuO9zyCI3A7+7o8j7BHbCNCRYRx9MdK2/yoFVUqnbYEDBtRGw3tRKh0xCBVCiEgCw3+dNZgLCuN+nTMePvb3+6IA7KND0Txwka7Kr/pFYcwY4gwqKTZOBfeGUQkfQLZ2NeTkDL8dw/OxXoIzHXRqQRPkw5MV1xxheuZB3w5/jr4W3lo6BxAuyvn5oGlt6qhf+Ae43VjrMhCwCOiSNKjtH1hsOAY7Z5sh0twiNQpEQL1kquuff2xcDygUwoC6FN+jEf1qTu44Y1SuO49F8Lw20nhke3geuA21844SYxtLj5yXgw6/KUtlnNz/YizoX/gPp966qmu8yH1StMOHKJPh+/MQ89v+mFgNxBf7j/7077OM+754uueT1/XLLSl4gBR19gdUrA4e6RgWbALrCf9D/yx2d9BuGwcfGzm9ddf7zjEQgaDAMXzyB/LJ0IOj3DQ+DtpBoNb3qaOdozqyR8wCJCUNgoa2zEykIOUhBdL2h6JNIhCuA80tuNd8R2ycAwdQfw9okz2h2h4lxxPJIGXiXHkWEiLYGOMWc8Cobw3SiqIsimDNisPyuY3gk+5NPojyIAHhIXjeMAwdJTDdfG30LnA/52IPZ2YvLEeSoyGyR+oD9LrcIG6pi7hEesAdUAUwn0nvUdWAcGlDj2PqGsMC99ZBxe8oaHeKRuHDMPKcThoOEYcR1msp849jziWbXABTiHunqNcL9kS9oOrLPCC33Rio7MU18F5KZdOdoDtdIhjG38H56Djkx9WMZQY6eNUOTd1xzMMSKlz72mu4T6znbqER9QHaWE+2e77fPCc88zDA/8swRuOp+74jg3A/mCz2Jdt8Ah+4ORhEyiPfal/MlueR1yP5xEL6+Ei+/nOa1w3v3H6sU+eR3AM3vtr8n8nvGM/smc4DkMJ+DAYQ2qK1APvyFd4WvV0fVPuRu1cwJtvb22RjvZm2X3u9MzaoQc3M4zsv7er7WzL/g38uvCx2ev4ne874Lf/DnL9DiN8HAjvC/LtP5TYtK1etjYnpLK61j24PQE8am5qlBJJysKZwydK6u7+hrfn2hZel+u3B+uzzwX8/n5beL+elg1ylRNGeP/sbUOFDVvrZUdcDbbrWJW7X0E20umUNKpzMKWmRCbVDu0YyTC6u7/5tueqL9Z1tU+4rDDYHt63N2V7hM8R3s8jvH+u7YMN7MqytZslVVymwl/V6Zh0By59cnmRlES7/xv4m3tW6ggHFRpestHV9ly/w+v871zruvoOwt9Brt/hxSP7t0d431zbDf1Dd/e3u21h5PodPjb8O7wehH9nbwO5focXj+zfHrn2NRQO3d3ffNvzrQsjex//O3sJb8v+7pHrd3jxyN7PI9e+YwFjQlQNBoPBYBgMmKgaDAaDwVAgmKgaDAaDwVAgmKgaDAaDwVAgmKgaDAaDwVAgmKgaDAaDwVAgmKgaDAaDwVAgmKgaDAaDwVAgmKgaDAaDwVAgmKgaDAaDwVAgmKgaDAaDwVAgDIyojrG5Hg0Gg8FgAIUXVRXUZCqV+WEY60im0o4TvXWzmISbt0pkvxnDMDaRcDalD1xQHsUTSeVR5rdhzAIOwKPeW6PeoaCvfsMAxtvbZNu2LTK9tlImjq/u03NgGPmAUhizV9dulsqa8VJZWSWRzDtsu0NHR1paW1ukYXudzJpYI7XVFWYUxyjgEe/kXbpmi0yaMlXKyit6/MounLKWlibZvnWL7Dl3mpSWFJs9GotA3rTeG5paZPWWHTJh0mQpLSt3jntPwG69efVbQUUVJJMJaWpslPrt29y7VZPJlDuRYewAOmH4ikvKpHbcOKmpHSclpbwkumfGELYkE3FpbGiQHfV1Em9tddkP49HYAnYpGo1IiRrA2trxUl1b26uXSzsnP94ujTvqpUGXeFubpNLwKLODYUwAusSiMSlVh6x2nPKIl7Irj3oKjh9SUSXKSCQS0q4EJmpNUYi5h2MOcKpEiVtaVqbiWqrGsWdRqkeHRhkJFdY2eBSPu6jDeDTWUKTOmfKoBB6VO0HtaZTqwYvKE8ofeASfAh4ZxhbgkTpnpSVSXlousZJitU8959GQiyqgYMiLwBrGLmi7iGik0RsCh2E8MgD4g7gajwz9QcAj7FH34hjGsBBVg8FgMBhGA3orqn1z/QwGg8FgMLwOJqoGg8FgMBQIJqoGg8FgMBQIJqoGg8FgMBQIJqoGg8FgMBQIJqoGg8FgMBQIJqoGg8FgMBQIJqoGg8FgMBQIXU7+0NEhsrHZJn8wGAwGwxiFyuPEsgLNqAR4c5fBYDAYDGMSKo8RXbqX1B6KqsFgMBgMhu5h0xQaDAaDwVBAmKgaDAaDwVAgmKgaDAaDwVAgmKgaDAaDwVAQiPx/D6KKzutXZ9oAAAAASUVORK5CYII=;" vertex="1" parent="1">
          <mxGeometry x="298" y="292.84000000000003" width="189.5" height="96.16" as="geometry" />
        </mxCell>
        <mxCell id="uihOCpdedheHZuDgh2_N-16" value="" style="edgeStyle=none;orthogonalLoop=1;jettySize=auto;html=1;rounded=0;" edge="1" parent="1">
          <mxGeometry width="80" relative="1" as="geometry">
            <mxPoint x="273" y="198.2" as="sourcePoint" />
            <mxPoint x="323" y="198.2" as="targetPoint" />
            <Array as="points" />
          </mxGeometry>
        </mxCell>
        <mxCell id="uihOCpdedheHZuDgh2_N-17" value="" style="edgeStyle=none;orthogonalLoop=1;jettySize=auto;html=1;rounded=0;" edge="1" parent="1">
          <mxGeometry width="80" relative="1" as="geometry">
            <mxPoint x="355" y="198.2" as="sourcePoint" />
            <mxPoint x="405" y="198.2" as="targetPoint" />
            <Array as="points" />
          </mxGeometry>
        </mxCell>
        <mxCell id="uihOCpdedheHZuDgh2_N-21" value="" style="edgeStyle=none;orthogonalLoop=1;jettySize=auto;html=1;rounded=0;entryX=0.611;entryY=-0.011;entryDx=0;entryDy=0;entryPerimeter=0;" edge="1" parent="1" target="uihOCpdedheHZuDgh2_N-11">
          <mxGeometry width="80" relative="1" as="geometry">
            <mxPoint x="430" y="250" as="sourcePoint" />
            <mxPoint x="580" y="350" as="targetPoint" />
            <Array as="points" />
          </mxGeometry>
        </mxCell>
        <mxCell id="uihOCpdedheHZuDgh2_N-23" value="&lt;div&gt;On Prem&lt;/div&gt;&lt;div&gt;&lt;br&gt;&lt;/div&gt;&lt;div&gt;&lt;br&gt;&lt;/div&gt;&lt;div&gt;&lt;br&gt;&lt;/div&gt;&lt;div&gt;&lt;br&gt;&lt;/div&gt;&lt;div&gt;&lt;br&gt;&lt;/div&gt;&lt;div&gt;&lt;br&gt;&lt;/div&gt;&lt;div&gt;&lt;br&gt;&lt;/div&gt;&lt;div&gt;&amp;nbsp; &amp;nbsp;Defender image&lt;/div&gt;" style="sketch=0;points=[[0,0,0],[0.25,0,0],[0.5,0,0],[0.75,0,0],[1,0,0],[1,0.25,0],[1,0.5,0],[1,0.75,0],[1,1,0],[0.75,1,0],[0.5,1,0],[0.25,1,0],[0,1,0],[0,0.75,0],[0,0.5,0],[0,0.25,0]];rounded=1;absoluteArcSize=1;arcSize=2;html=1;strokeColor=none;gradientColor=none;shadow=0;dashed=0;fontSize=12;fontColor=#9E9E9E;align=left;verticalAlign=top;spacing=10;spacingTop=-4;whiteSpace=wrap;fillColor=#FFEBEE;" vertex="1" parent="1">
          <mxGeometry x="584" y="100" width="130" height="186.33" as="geometry" />
        </mxCell>
        <mxCell id="uihOCpdedheHZuDgh2_N-24" value="" style="shape=image;verticalLabelPosition=bottom;labelBackgroundColor=default;verticalAlign=top;aspect=fixed;imageAspect=0;image=data:image/png,iVBORw0KGgoAAAANSUhEUgAAAJkAAACUCAMAAAC3HHtWAAAAaVBMVEX///9AvkY9vUMzuzo5vEDN7c9rym83vD3x+vGR2JT8/vwwuzf5/fnh8+HW8NdvzHPo9+lNwlKB0YTc8t2J1Iye26C55bsnuS96z32u4bC047ZXxVyj3aXG6cd1zni+58AatyRgyGWW2JlxWU9BAAAP/UlEQVR4nM1cacNzvBJuFoKggtbelv//I0+CRBBF2/t5z3zqJi6T2WfSy6WpQFsHl/8/SgAGkLL771f2k++eN0eAE8zCzRsEQfTJwn6VZbcPLosCf3gFBkKpZ/6ld2OsfX6ALMwARKevsuKKuQO0lvTIYLXB+oRgiEHyETKQnbzG614EwtfA6rCiPTK2cfOI8e3OrPPI/BdE7clrml60MBveOangGmy3hMm6UvQJzy4ubM9e9ug3kKbjW//+ouRVb/7cL+z7hhC+JT88rTkVFkzS+OB0cfHBrX9PaQYxwTN9+4Qnf0ChzdrUYAg861Y3vvmaqGjOoveijbXekB85ppVqSAhMTV9dLleEz2649TPHEhIoFKM1QXtys5mdFOhrdj3BNMfMkZ6sweZmjeG7jhsasuUmNgjgTUu0ouhm2/Xmczh2b+dIvoEMwFNOKsogO+rSubnHmLqb0AKW9VwzOPdSfIOrMyJdUuNKJnIq8s4NcfI7zEWN2BLAE1ApxL17RelxaH5ODju1dHCQ7zyNV2NuhWk5vEsgfzeKSpRnHBs+rm0JgyArD/9UPHf+9rktRjj4QQmEfyXSVvjPmEcd9KjkeMIbG0V2/dN48JZ7+pK0lDv7HoAfv+hL49KTYWy/UW6dLGGCID72UyHDL3dXkX1XBGSD7IbFjEcRg5MQvr8b6DeIHlCBiGGA4fWISPo1wpgZ17xDQOPdZ/OCGuAhUj7gN1IEECsPqpbYNmYyXj4PoEi1guZHVlnXdXG/P+9F3eWs9yZij/Y3v0CQ7D+sIoshDEzQCq7fpJrFcp5V5wxgTAjXEC5aCElcAtqecX4CQgrFsLDYjTUjm0BkcBfOSxgeVJWO73kez3OeD0AQhhOWOZF25tGi5ZIlItUkN/cMkV0/4zwopLGU/0RtCoJDEljFaZrmFcrIFqgxJ9P5m9hoLugFQVpE7rRcF8Aesj49IKxL+EM6NbDlx+0g2oAHTJzeo+p/B6U39KKaEaxnoI5LiJ4qBBVf77WvC34qEkaWd11LIJUByJXsgllAQ4/CCsOwdIVekFgDlhMMBA8da4RXc/tpL3EYyOuIMJY9Z/B13M8Kn0TGrxVyCAe9wFP0l3CkUDwwVzcSDx+H3fOQ+fA7Oi0/+oLXaWBzQnL3ntwN9uYu4C8A7c7Ffr6r9g5X/VPds2+RDeFnkHJ1pt1lMJHvIyAztFhxrVeyyD6/mQvCXRJZteATysXD3oYICB0M5SZoueQahJbQ8jMYMHfAGC/1VwRTQuZQL1tP2Ht+9DgYKUzkDFUssSKPaJ2lakIojf8KF7K7ouxim1Fq+BrQHksi3DkF7X6gYYB2lRtIuS1KdDmDCLPKvsb5w66EBuo3Ru1daBn3E0FTt1z7Fk+EXAHM4a6G2GXofJSJR2Mdawgob0rwcMa6JvKFl/J8cf9rphwCprO01Y+KR0Yn5KLG2WNJEWL38/mypICNa2IWcfs7QOMRVbkQDd+58yiD2y5MqlVm6AW3Fg7rQAIG3L5L8Ykww0BjGCiE1h/yHJhtlIeS2gagrY23c+42pgRllTvoYcQ5dvuyoFLILURc1MKW78ttU5Wc0Nr+zuritAx6NF5oE1R/W+mZbIfI05zrWbOo0QjFb2JIqPslrksfro2yK6Jw/7TtWZBTMGHrjmY7bymRJklowZcUFFXWr2YqoJwg3+m1ulAG93EImm/dzfIWFRXpdZS8T3z3KKxHRfJSpQXtvtj6ZctDy3adqSU1kxYZfdJkGMm5t5MSRtJ08LxuTz4sG/XJCuxmbPGtHKgwGIJPpcwLO/aytaculPMTZu0NRTeiVNluxvt7TlI/Ms1HoU8VM0kZmbsYR5kOLiLbMYvXtHpWB+3bs2nK2m0ZmfnO/STJSM4NIEgX/axo8uYE3Tb0wMrxPITjZp+HIxQt4g34mY6HFQ/RySrzr9G0MGHFWk586woP5FM94Ku86IQb8O5cfSBeN1UcPaKFGavD2W4nhZ0dDnmnDfGaw23QWoSZWnlxeihrxhDOt0fdBH0UFDW1iDOO4prVqcP2YL2wFGk4mbKvSNvVdB4ActeHAWvtiglxOraN45VAY5R7oL50kaVJqMxFwDQn0mfRi3v0sf4ZVIJmPtMCqDqQoOTC1k/GxgL6012ab7M6iUy3ZlHFg8ldIxL1fTwoH4En0vNyWY5273qIdCCRqLSYS4ka9Z4bx568hizaDc7jF9Dm3ZWonUn2hhnpbZZsfvWVDTL3yxH7OhnmNmNmkgbRRqMd8QqzFRms6cjZQHhx1TseKazOloNWROZdt1v/rMorNMhYTb4TrcjQ93QgWKh0Qr7cUDKXKWdUeDIageRlbKY4WJuQGHw4yRc7H8X0rJXQCKLFAIaM/MhYD0oorkzQYjQhG73Rqufq3cApuzrDBRd5110KBxndTpLxwNmALKqw2s102DaDc49chj7ARlB1W8j3XfGfjMln+OLOy+SwnkT2nS7FaFchWA34+IkLlpHNDrd4KGTfg4VkFGwKSEc0QrqxsTNdINQNrwJ5GaT5euf9IgfUVAZag4IYUZYuyw2c9Y9JYvFo0r1euqkxsSqkVntTzZGwcm0BveCZV4AiUcwwAeSf8kQFIcBs1zRWcmeaAaIzdmwE4youiVplVmHWNsacImjq9NHycINQSpEi/hozVrVxVzaJKW/wG1tXceXjh+Iw3BgpimTA2mgXE5BvzGz4jhOEz7KouzQeKE27unxaYeL45ku8Jga6xYZ0NK/OKB7MjGxyXo0uRwSx/cbQAfKCuqIzTzI0BgSN9mAbmaLn/NEQyIuvcmvOlfIB5gVKgJgEdpdQDwyIRfHccmGa2YXlfATPd8LimmULfcZEpY/JWP1b+Pyt5Wq8cJSEMDvdqFtsU2SVnb2q2HIQTO2CqjkBs1dfrxnjZQUYowyBKi7DYH8uyYuCsIwrgFZZp7C/2J1SDiU55H0ZQFs7tOnaG0FMEGHtlRsGvrsrJRSFZc6nW/yoGDWbZEiJZsItFV+9GVVdU+hWxqxNZCiIZq8M8iQqjxU9eEYF+cdZb4cNF3LG4Fbzon4xVb/JqXFXP6rb15vwZ2xaTPQ2o4JCkcpo4nOUTkxF19N1oqiw4bnE0gyLUPCYVR+8O5u0DB3pca45l5S5UZSPguJbT1j+TOb99XgycJBuDOcdIC/k6l9BhM7lKmIsAVQP97mQbi+4aQ6BsO+GQX0nuBdpi14Z3Qo0FCDYB0HZC7Ru0QQrE5101SQfPG442040kuc7TeHmKtAYBL8n8WoIOACr7LwrQqPX8K0HnswRROyjyd1NcqIgCa3mKWKNNM4f1+sjj1P3JqINHm5s22K/tKf5BaEW5rbQPybO7g5OFgwjrhZfhgo/oahxWyC3kdu2V9WFv+iofIkqKIRj74thwoGQyr4lH4rXr6SS+9FnlzOacWVBKKN8M6u8PDN47tfpQHGfD4S2W1rRRth8gryw5vrxuNpCQ9xbcW9O76DTZkOakfXVFotrP2vz29P6VnV49OEM5H8m7aqIPeRWFuwlQoQ81TUVIdlnHfkfkEJGFTKpRYTQjEe0OU+NmuDfa/kmsglgn1IeidX/LTJJX/QBf44M6vTRuZk/QgaxRmTriNR/gAw+Q52M5Yr/BtmyYvvvaZNnf799O9twEpkyu4ac8ySwIH//8CeQ+Y5VDL1rv4nbqu2kvnpRU97SPO14hG3C5yTN/dZ1XXGfaiROwbLY8NsPkAWNawPad1F5vsgTKpyNpfOga0kfUtAMyxEljZL6wTAVlFFmx4UVOEFYiNro+/H4g8icmPXTgtj2VWeln0Pl+bbehoUE1rOgInKBVkwQLo8nCzyXEJdg+52aHUTmj407CKJQzpb1ZWAnzhb9/NmBibBap/pQIX1bOTi6m7Llj0o5AExE2BTZ6/aPNp9tve+pQfxGCY4ia8a+DGQKQCFYScGaSDVuaMTedtRg9m5M9KilTSRvFHQYzUYhCZzkiQ7NGy9VDOUpANbLECJFJextsXUTmVvfJIlJ/wBo8oJF3nvluiCBQfK4W89c1jcB7s8YWVh9bRdNU8bye8hudV2bK/v7yAgdCVHBv4hpCtZy2G2tzfeBflbQCyX8YcA6VpOmw1CoZ0kZPXLY8UB81vdJHTX5jkHRK6XD5Xv8NZFdkKe8PHtql0xHGiyJdX3A5XNk6hyDKudfOlUDlvfxH1Jxc+8SYO36gTzJZeMpyM+Q+fJ30ynFCWyllpMD8qI7KaUQa9W7m2Tjoi/+C2TToUOlrrLBddFGqulzQqb1VgspaPu1xqPIvOsKWSlRaFujxv34comBZ7VEVl32aFs3p1YcMCNz1aTm5Jl9pX3tJZFVlkqZB0+qK/mCZ/W9lCR03oBMSZ52qtSbPhTN8OH1dLBNmRVNAE4jW6j1GpknR5pmozEPNfco5xnED6zB2AdnOjpH/eYama/623pipYzvS7Tpx9cYxEVjicNG8oMDXYCfINP4G0vhy7yLoxgoTtRC7TTIkQHbv0Smtb3mdGiM9XNkk5xt7SZfrjV0YcbjH3+H7LKrAWL5mi0jOASKQ2nWF8iUgdDPEGhWY6Cokw8A+8IcjA9msl8gU3EhnuyZii9Gw++UlRxSAoxVD3c9YvIHyJR3opNxmrxTn3w0LZJHZfJQFEZPpMtfIFMRrXZKfvLo/dFDomzt+VbOF8giqQLaSU09ChpP+PV07IT/r5Bd5CgRJJIhs8hRzx1SKwyTJAqi4yMW3yCz5H2RZEkoPxHR9uS/QT9dxwRVtvs8Vr+ckHWnkandguPciiMnCoY/wZjlW7K8ilEG3COG4xtkl6fUAczqwPMslbAPk3/ResB63P0j/3ukgvlBzc8hm7wkpC+aqcF8eUbktjVgTcB+FKTGzoaK/0lkkXHgFstcyrmijUE/wnYtruL4YJROIhPD3uvNms5d+c/UZjDLsj6l1kGi3aA2kbHM8HcnU0x7DNklXA2O4lku6TlBEjbiTxzquAVI/Xj/cIoy5MO5YguPrYll/ci7orFnsSgU+u5s4Bajx5tKYlSq5HA9HrugUhntHooyUZs8W43Qe1bM6DCGwPOtdvojBicaaYZN7tFuLiwVAD/6FX252qo5J78wTRdETRc/2kec1uH0rdcNthXMA9hyVGfj7LFGjZoC++5Iquf54s8uZnB5PNvPss5Lno0Kk96fPqtM0d9vSHoqOG9ASl68RzYVBdH72vxHyCRz5vahO7KbTjqVOH/fJUxGrzm3D6FUZPImf9LCp+wPWr7qWBLJJ2jPqUC4fSbLUQNqkOxXGc6Tp85yocxtwjC07jF4KUtrnHAfSP2lBkTdn3QvG200DwExg6W5i+ytoR3EzHBY4UcU612MuQ+je90wJIZJ/6x5H1Rb52t2/zLLsWl1+8M+tPgrIgMujPf/XC1ZHhX5MTk3suyIQZId/muqP6Wgbkk2RGaieEBJFT//++mzgZzw2V0rjoy11/QeRgb//D9H/OjrJWePVQAAAABJRU5ErkJggg==;" vertex="1" parent="1">
          <mxGeometry x="610" y="173.07" width="53" height="51.26" as="geometry" />
        </mxCell>
        <mxCell id="uihOCpdedheHZuDgh2_N-25" value="Prisma Cloud" style="sketch=0;points=[[0,0,0],[0.25,0,0],[0.5,0,0],[0.75,0,0],[1,0,0],[1,0.25,0],[1,0.5,0],[1,0.75,0],[1,1,0],[0.75,1,0],[0.5,1,0],[0.25,1,0],[0,1,0],[0,0.75,0],[0,0.5,0],[0,0.25,0]];rounded=1;absoluteArcSize=1;arcSize=2;html=1;strokeColor=none;gradientColor=none;shadow=0;dashed=0;fontSize=12;fontColor=#9E9E9E;align=left;verticalAlign=top;spacing=10;spacingTop=-4;whiteSpace=wrap;fillColor=#FFF8E1;" vertex="1" parent="1">
          <mxGeometry x="584" y="273.5" width="130" height="146.5" as="geometry" />
        </mxCell>
        <mxCell id="uihOCpdedheHZuDgh2_N-26" value="" style="shape=image;verticalLabelPosition=bottom;labelBackgroundColor=default;verticalAlign=top;aspect=fixed;imageAspect=0;image=data:image/png,iVBORw0KGgoAAAANSUhEUgAAALIAAACUCAMAAAAAoYNxAAAAV1BMVEUAwen///8Av+hWy+wAuubi9Ptgz+7c8voAvOfN7/n4/f4AuObh9vzv+v3z+/43xOrV8vqO2/LE7Pi76Pc+yOshxep01O9/1/Gw5fWc4POo5PVs0O5Mx+tFF4PXAAADwElEQVR4nO3ci7KiMAwAUBJRAUVQwdf6/9+5qHDl0bS9M7tpMtN8wZkYS5s+kiRGjBgxYsSIESNGDFtgaMCvA5N8pUyNZ1BG3p1AFxkxB11kTLoc6yJnrxxrImNWgy4yVr1YDRnbHHSRMduCLjIme9BFxqYGXWRst6CLjFiCLjI2U7F8MjZ70EXGdi6WTsa2mIuFk3FVLsSyyUaxaDK2B4NYMhkbE1gyGTfGHAsm48ZUx5LJGVEVcsm4IcXFJQutMwVeiDru4pFnAtOcXZbfvCHKZ3mVl2ZLVQCcd+tSXJbxahEXzW4Nd2FpxitdFV2S03QN2yY0chKpLccALXZkOAoqDbRWBbxK4kUuKzFmxKNVXD7xTYZ7Gpo6RHa01XE3JnfJfZOL0NIhUnuOYb0ayHATkWZXVfTOD7mUMNNwiw/ti/khw00AOb07xPB4f0F6cvg0Y/ZwiQ+fb15Pfv8Vg4rRmePh+zGQ4RlY7Mwx7JsZ+RRy0PCoiu7r0RfCDzno8gRvbvG2XZDzYGSsPMRwHCacX/LhEsiMPjmGw4/uS4ZTKPHJQwzfxdOIDH9CpBkrL/H+axuT6wBkT/F4Tj8mw4bdjJmfuK4I8p57bEasSeU4iuNofTohw5F35epbFbDF0e8/Jf8M10zinDLOYjL+TslwZSR/t/5dMS3YGbnmW7litdhqomI6LMzIwNbuwqdvjudTiTm5ZOoq+lfFolrnZLiyDHS/qIpuIuEglxwnFJebvHQU8+nagtyvCeWQ87lnSd4/OdLsXxjNnLMk83QVvf9+ywWegVxypNl7kFuu7wxkeAgaNM7L9JnIIGdoLg3LDiP5zDMJ9ZgWGZJsJh+YGgTOyWdhghjJbF1F1xTf2A8yk9m6io6FlHH6biYba+j/mG21cTN+iAkyX7vLYib+UhQ5Z1u50q0XooFMkRm7ilSDi/pDkWTGPgzRRjRXsoXM2lU05pla7ZNkOPOJjS1xcqZDk4E1zYuNB3r71EKu+cSG7Z07mTALmbd5O6uNbm1Exc5CLnm7ipOtyvNqQ8Uq39LB2yN3bwj38UzpYG43+5qD7wSPw3W4QSDZeYREINmrNmSRncehBJKdh84kkh1H+0SS7QcoZZLtx1Rlkq2HgYWSrUeuhZKttSGUrPD6gMZLGhqvwmi8cKTxWpfGy3MaryhqvAiq8bqtxkvNGq+Oa7ygr/EZBI2PTWh80kPjwykan6fR+AiQxqeWEoUPWql8Nkzh42yJwifwEo0PDWp8zlHho5kxYsSIESNGjBgx/nn8Ba6SKRMXEBhAAAAAAElFTkSuQmCC;" vertex="1" parent="1">
          <mxGeometry x="611" y="317.96" width="59" height="49.06" as="geometry" />
        </mxCell>
        <mxCell id="uihOCpdedheHZuDgh2_N-29" value="" style="edgeStyle=none;orthogonalLoop=1;jettySize=auto;html=1;rounded=0;" edge="1" parent="1">
          <mxGeometry width="80" relative="1" as="geometry">
            <mxPoint x="475" y="340.2" as="sourcePoint" />
            <mxPoint x="580" y="340" as="targetPoint" />
            <Array as="points">
              <mxPoint x="500" y="340" />
            </Array>
          </mxGeometry>
        </mxCell>
        <mxCell id="uihOCpdedheHZuDgh2_N-30" value="" style="edgeStyle=none;orthogonalLoop=1;jettySize=auto;html=1;rounded=0;exitX=1;exitY=0.5;exitDx=0;exitDy=0;entryX=1;entryY=0.5;entryDx=0;entryDy=0;" edge="1" parent="1" target="uihOCpdedheHZuDgh2_N-9">
          <mxGeometry width="80" relative="1" as="geometry">
            <mxPoint x="600" y="199" as="sourcePoint" />
            <mxPoint x="547" y="201.2" as="targetPoint" />
            <Array as="points" />
          </mxGeometry>
        </mxCell>
        <mxCell id="uihOCpdedheHZuDgh2_N-31" value="Defender Daemonset" style="text;strokeColor=none;align=center;fillColor=none;html=1;verticalAlign=middle;whiteSpace=wrap;rounded=0;" vertex="1" parent="1">
          <mxGeometry x="340" y="313.5" width="127.25" height="30" as="geometry" />
        </mxCell>
      </root>
    </mxGraphModel>
  </diagram>
</mxfile>
